<svg style="position: absolute; width: 0; height: 0;" width="0" height="0" version="1.1" xmlns="http://www.w3.org/2000/svg" xmlns:xlink="http://www.w3.org/1999/xlink"><defs><symbol id="A" viewBox="0 -680 2816 2816"><path d="M944 324 l16 0 l612 1724 l260 0 l-752 -2048 l-256 0 l-752 2048 l260 0 l612 -1724 ZM428 1468 l1048 0 l0 -220 l-1048 0 l0 220 Z"></path></symbol><symbol id="Adieresis" viewBox="0 -680 2816 2816"><path d="M944 900 l16 0 l612 1724 l260 0 l-752 -2048 l-256 0 l-752 2048 l260 0 l612 -1724 ZM428 2044 l1048 0 l0 -220 l-1048 0 l0 220 ZM664 320 q69 0 114.5 -48.5 q45.5 -48.5 45.5 -111.5 q0 -69 -45.5 -114.5 q-45.5 -45.5 -114.5 -45.5 q-63 0 -111.5 45.5 q-48.5 45.5 -48.5 114.5 q0 63 48.5 111.5 q48.5 48.5 111.5 48.5 ZM1240 320 q69 0 114.5 -48.5 q45.5 -48.5 45.5 -111.5 q0 -69 -45.5 -114.5 q-45.5 -45.5 -114.5 -45.5 q-63 0 -111.5 45.5 q-48.5 45.5 -48.5 114.5 q0 63 48.5 111.5 q48.5 48.5 111.5 48.5 Z"></path></symbol><symbol id="Aring" viewBox="0 -680 2816 2816"><path d="M944 1044 l16 0 l612 1724 l260 0 l-752 -2048 l-256 0 l-752 2048 l260 0 l612 -1724 ZM428 2188 l1048 0 l0 -220 l-1048 0 l0 220 ZM952 580 q80 0 146 -39 q66 -39 105 -105 q39 -66 39 -146 q0 -80 -39 -146 q-39 -66 -105 -105 q-66 -39 -146 -39 q-80 0 -146 39 q-66 39 -105 105 q-39 66 -39 146 q0 120 85 205 q85 85 205 85 ZM952 436 q-62 0 -103 -42.5 q-41 -42.5 -41 -103.5 q0 -61 41 -103.5 q41 -42.5 103 -42.5 q62 0 103 42.5 q41 42.5 41 103.5 q0 61 -41 103.5 q-41 42.5 -103 42.5 Z"></path></symbol><symbol id="AE" viewBox="0 -680 2816 2816"><path d="M344 2048 l860 -1828 l148 0 l0 1828 l1252 0 l0 -220 l-1004 0 l0 -696 l924 0 l0 -220 l-924 0 l0 -692 l988 0 l0 -220 l-1524 0 l-992 2048 l272 0 ZM1476 1468 l0 -220 l-968 0 l0 220 l968 0 Z"></path></symbol><symbol id="B" viewBox="0 -680 2816 2816"><path d="M988 2048 q242 0 393 -72 q151 -72 221 -195 q70 -123 70 -277 q0 -162 -64 -274 q-64 -112 -159 -172 q-95 -60 -189 -66 l0 -20 q88 -24 163.5 -74 q75.5 -50 122 -136 q46.5 -86 46.5 -218 q0 -150 -68 -273.5 q-68 -123.5 -207 -197 q-139 -73.5 -353 -73.5 l-716 0 l0 2048 l740 0 ZM496 1116 l504 0 q134 0 232 53.5 q98 53.5 151 142 q53 88.5 53 192.5 q0 135 -102.5 229.5 q-102.5 94.5 -345.5 94.5 l-492 0 l0 -712 ZM496 220 l468 0 q204 0 298 94.5 q94 94.5 94 229.5 q0 108 -53.5 188 q-53.5 80 -144 124 q-90.5 44 -202.5 44 l-460 0 l0 -680 Z"></path></symbol><symbol id="C" viewBox="0 -680 2816 2816"><path d="M1896 640 q-28 -158 -102 -281.5 q-74 -123.5 -184 -210 q-110 -86.5 -246.5 -131.5 q-136.5 -45 -291.5 -45 q-262 0 -466 128 q-204 128 -321 364 q-117 236 -117 560 q0 324 117 560 q117 236 321 364 q204 128 466 128 q155 0 291.5 -45 q136.5 -45 246.5 -131.5 q110 -86.5 184 -210.5 q74 -124 102 -281 l-248 0 q-22 106 -76.5 187.5 q-54.5 81.5 -132 137 q-77.5 55.5 -171.5 83.5 q-94 28 -196 28 q-186 0 -336.5 -94 q-150.5 -94 -239 -277 q-88.5 -183 -88.5 -449 q0 -266 88.5 -449 q88.5 -183 239 -277 q150.5 -94 336.5 -94 q102 0 196 28 q94 28 171.5 83.5 q77.5 55.5 132 136.5 q54.5 81 76.5 188 l248 0 Z"></path></symbol><symbol id="D" viewBox="0 -680 2816 2816"><path d="M880 2048 q312 0 530 -123.5 q218 -123.5 332 -354 q114 -230.5 114 -550.5 q0 -318 -113 -546.5 q-113 -228.5 -325 -351 q-212 -122.5 -510 -122.5 l-660 0 l0 2048 l632 0 ZM496 220 l396 0 q240 0 401 96.5 q161 96.5 242 276 q81 179.5 81 427.5 q0 250 -82 431 q-82 181 -249 279 q-167 98 -421 98 l-368 0 l0 -1608 Z"></path></symbol><symbol id=".null" viewBox="0 -680 2816 2816"><path d="M880 2048 q312 0 530 -123.5 q218 -123.5 332 -354 q114 -230.5 114 -550.5 q0 -318 -113 -546.5 q-113 -228.5 -325 -351 q-212 -122.5 -510 -122.5 l-532 0 l0 220 l516 0 q240 0 401 96.5 q161 96.5 242 276 q81 179.5 81 427.5 q0 250 -82 431 q-82 181 -249 279 q-167 98 -421 98 l-476 0 l0 220 l492 0 ZM248 0 l0 2048 l248 0 l0 -2048 l-248 0 ZM812 1084 l0 -184 l-880 0 l0 184 l880 0 Z"></path></symbol><symbol id="E" viewBox="0 -680 2816 2816"><path d="M1500 2048 l0 -220 l-1004 0 l0 -696 l924 0 l0 -220 l-924 0 l0 -692 l988 0 l0 -220 l-1236 0 l0 2048 l1252 0 Z"></path></symbol><symbol id="F" viewBox="0 -680 2816 2816"><path d="M496 2048 l0 -916 l888 0 l0 -220 l-888 0 l0 -692 l980 0 l0 -220 l-1228 0 l0 2048 l248 0 Z"></path></symbol><symbol id="G" viewBox="0 -680 2816 2816"><path d="M1904 640 q-28 -149 -102 -271.5 q-74 -122.5 -184.5 -211 q-110.5 -88.5 -251 -137 q-140.5 -48.5 -302.5 -48.5 q-197 0 -361 73 q-164 73 -284 210 q-120 137 -185.5 331.5 q-65.5 194.5 -65.5 437.5 q0 324 114.5 560 q114.5 236 320 364 q205.5 128 477.5 128 q244 0 432.5 -102.5 q188.5 -102.5 296 -289.5 q107.5 -187 107.5 -440 l0 -220 l-780 0 l0 220 l616 0 l-76 -16 q0 188 -75.5 326.5 q-75.5 138.5 -210 214 q-134.5 75.5 -310.5 75.5 q-190 0 -342 -94 q-152 -94 -241 -277 q-89 -183 -89 -449 q0 -266 88 -449 q88 -183 237 -277 q149 -94 331 -94 q111 0 204 30 q93 30 166.5 87 q73.5 57 127 137.5 q53.5 80.5 86.5 181.5 l256 0 Z"></path></symbol><symbol id="H" viewBox="0 -680 2816 2816"><path d="M496 2048 l0 -916 l1092 0 l0 916 l248 0 l0 -2048 l-248 0 l0 912 l-1092 0 l0 -912 l-248 0 l0 2048 l248 0 Z"></path></symbol><symbol id="I" viewBox="0 -680 2816 2816"><path d="M248 0 l0 2048 l248 0 l0 -2048 l-248 0 Z"></path></symbol><symbol id="Idieresis" viewBox="0 -680 2816 2816"><path d="M248 576 l0 2048 l248 0 l0 -2048 l-248 0 ZM84 320 q69 0 114.5 -48.5 q45.5 -48.5 45.5 -111.5 q0 -69 -45.5 -114.5 q-45.5 -45.5 -114.5 -45.5 q-63 0 -111.5 45.5 q-48.5 45.5 -48.5 114.5 q0 63 48.5 111.5 q48.5 48.5 111.5 48.5 ZM660 320 q69 0 114.5 -48.5 q45.5 -48.5 45.5 -111.5 q0 -69 -45.5 -114.5 q-45.5 -45.5 -114.5 -45.5 q-63 0 -111.5 45.5 q-48.5 45.5 -48.5 114.5 q0 63 48.5 111.5 q48.5 48.5 111.5 48.5 Z"></path></symbol><symbol id="J" viewBox="0 -680 2816 2816"><path d="M1032 1436 q0 127 -39.5 214.5 q-39.5 87.5 -114.5 132.5 q-75 45 -182 45 q-97 0 -173 -36 q-76 -36 -119.5 -100.5 q-43.5 -64.5 -43.5 -151.5 l-244 0 q0 157 75 271 q75 114 206 175.5 q131 61.5 299 61.5 q178 0 309 -71 q131 -71 203 -208 q72 -137 72 -333 l0 -1464 l-248 0 l0 1464 Z"></path></symbol><symbol id="K" viewBox="0 -680 2816 2816"><path d="M496 2048 l0 -664 l256 -288 l712 952 l300 0 l-860 -1124 l860 -924 l-324 0 l-920 1016 l-24 0 l0 -1016 l-248 0 l0 2048 l248 0 Z"></path></symbol><symbol id="L" viewBox="0 -680 2816 2816"><path d="M1448 2048 l0 -220 l-952 0 l0 -1828 l-248 0 l0 2048 l1200 0 Z"></path></symbol><symbol id="M" viewBox="0 -680 2816 2816"><path d="M248 2048 l232 0 l0 -1556 l20 0 l640 1556 l224 0 l640 -1556 l20 0 l0 1556 l232 0 l0 -2048 l-296 0 l-696 1700 l-24 0 l-696 -1700 l-296 0 l0 2048 Z"></path></symbol><symbol id="N" viewBox="0 -680 2816 2816"><path d="M1628 0 l0 1612 l-20 0 l-1120 -1612 l-240 0 l0 2048 l248 0 l0 -1608 l20 0 l1116 1608 l240 0 l0 -2048 l-244 0 Z"></path></symbol><symbol id="O" viewBox="0 -680 2816 2816"><path d="M1976 1024 q0 -324 -117 -560 q-117 -236 -321 -364 q-204 -128 -466 -128 q-262 0 -466 128 q-204 128 -321 364 q-117 236 -117 560 q0 324 117 560 q117 236 321 364 q204 128 466 128 q262 0 466 -128 q204 -128 321 -364 q117 -236 117 -560 ZM1736 1024 q0 266 -88.5 449 q-88.5 183 -239 277 q-150.5 94 -336.5 94 q-186 0 -336.5 -94 q-150.5 -94 -239 -277 q-88.5 -183 -88.5 -449 q0 -266 88.5 -449 q88.5 -183 239 -277 q150.5 -94 336.5 -94 q186 0 336.5 94 q150.5 94 239 277 q88.5 183 88.5 449 Z"></path></symbol><symbol id="Odieresis" viewBox="0 -680 2816 2816"><path d="M1976 1572 q0 -324 -117 -560 q-117 -236 -321 -364 q-204 -128 -466 -128 q-262 0 -466 128 q-204 128 -321 364 q-117 236 -117 560 q0 324 117 560 q117 236 321 364 q204 128 466 128 q262 0 466 -128 q204 -128 321 -364 q117 -236 117 -560 ZM1736 1572 q0 266 -88.5 449 q-88.5 183 -239 277 q-150.5 94 -336.5 94 q-186 0 -336.5 -94 q-150.5 -94 -239 -277 q-88.5 -183 -88.5 -449 q0 -266 88.5 -449 q88.5 -183 239 -277 q150.5 -94 336.5 -94 q186 0 336.5 94 q150.5 94 239 277 q88.5 183 88.5 449 ZM784 292 q69 0 114.5 -48.5 q45.5 -48.5 45.5 -111.5 q0 -69 -45.5 -114.5 q-45.5 -45.5 -114.5 -45.5 q-63 0 -111.5 45.5 q-48.5 45.5 -48.5 114.5 q0 63 48.5 111.5 q48.5 48.5 111.5 48.5 ZM1360 292 q69 0 114.5 -48.5 q45.5 -48.5 45.5 -111.5 q0 -69 -45.5 -114.5 q-45.5 -45.5 -114.5 -45.5 q-63 0 -111.5 45.5 q-48.5 45.5 -48.5 114.5 q0 63 48.5 111.5 q48.5 48.5 111.5 48.5 Z"></path></symbol><symbol id="Oslash" viewBox="0 -680 2816 2816"><path d="M1856 20 l-152 -104 l-1424 2108 l152 104 l1424 -2108 ZM1976 1020 q0 -324 -117 -560 q-117 -236 -321 -364 q-204 -128 -466 -128 q-262 0 -466 128 q-204 128 -321 364 q-117 236 -117 560 q0 324 117 560 q117 236 321 364 q204 128 466 128 q262 0 466 -128 q204 -128 321 -364 q117 -236 117 -560 ZM1736 1020 q0 266 -88.5 449 q-88.5 183 -239 277 q-150.5 94 -336.5 94 q-186 0 -336.5 -94 q-150.5 -94 -239 -277 q-88.5 -183 -88.5 -449 q0 -266 88.5 -449 q88.5 -183 239 -277 q150.5 -94 336.5 -94 q186 0 336.5 94 q150.5 94 239 277 q88.5 183 88.5 449 Z"></path></symbol><symbol id="OE" viewBox="0 -680 2816 2816"><path d="M2500 2048 l0 -220 l-1004 0 l0 -696 l924 0 l0 -220 l-924 0 l0 -692 l988 0 l0 -220 l-1412 0 q-270 0 -473.5 127.5 q-203.5 127.5 -317 358 q-113.5 230.5 -113.5 538.5 q0 306 113.5 536.5 q113.5 230.5 317 359 q203.5 128.5 473.5 128.5 l1428 0 ZM1072 1828 q-198 0 -347.5 -101 q-149.5 -101 -233 -282 q-83.5 -181 -83.5 -421 q0 -242 83.5 -423 q83.5 -181 233 -281 q149.5 -100 347.5 -100 l176 0 l0 1608 l-176 0 Z"></path></symbol><symbol id="P" viewBox="0 -680 2816 2816"><path d="M496 2048 l0 -1828 l436 0 q167 0 268 55.5 q101 55.5 146.5 152.5 q45.5 97 45.5 220 q0 123 -45.5 220.5 q-45.5 97.5 -145.5 154.5 q-100 57 -265 57 l-488 0 l0 220 l496 0 q239 0 392 -87.5 q153 -87.5 226.5 -235.5 q73.5 -148 73.5 -329 q0 -181 -74 -328 q-74 -147 -227.5 -233.5 q-153.5 -86.5 -394.5 -86.5 l-692 0 l0 2048 l248 0 Z"></path></symbol><symbol id="Q" viewBox="0 -680 2816 2816"><path d="M1340 1700 l56 76 l224 300 l272 0 l-340 -452 l-60 -80 l-228 -300 l-272 0 l348 456 ZM1976 860 q0 -324 -117 -560 q-117 -236 -321 -364 q-204 -128 -466 -128 q-262 0 -466 128 q-204 128 -321 364 q-117 236 -117 560 q0 324 117 560 q117 236 321 364 q204 128 466 128 q262 0 466 -128 q204 -128 321 -364 q117 -236 117 -560 ZM1736 860 q0 266 -88.5 449 q-88.5 183 -239 277 q-150.5 94 -336.5 94 q-186 0 -336.5 -94 q-150.5 -94 -239 -277 q-88.5 -183 -88.5 -449 q0 -266 88.5 -449 q88.5 -183 239 -277 q150.5 -94 336.5 -94 q186 0 336.5 94 q150.5 94 239 277 q88.5 183 88.5 449 Z"></path></symbol><symbol id="R" viewBox="0 -680 2816 2816"><path d="M496 2048 l0 -1828 l436 0 q166 0 267 50.5 q101 50.5 147 142.5 q46 92 46 215 q0 123 -45.5 211.5 q-45.5 88.5 -146 136.5 q-100.5 48 -264.5 48 l-552 0 l0 224 l560 0 q238 0 391 -79.5 q153 -79.5 227 -219.5 q74 -140 74 -321 q0 -181 -74 -323 q-74 -142 -228 -223.5 q-154 -81.5 -394 -81.5 l-692 0 l0 2048 l248 0 ZM932 1128 l496 920 l288 0 l-504 -920 l-280 0 Z"></path></symbol><symbol id="S" viewBox="0 -680 2816 2816"><path d="M1608 504 q-5 -155 -95.5 -277 q-90.5 -122 -244.5 -192.5 q-154 -70.5 -352 -70.5 q-196 0 -354.5 71.5 q-158.5 71.5 -252 200 q-93.5 128.5 -93.5 300.5 q0 207 140 335 q140 128 380 197 l252 72 q108 30 201 70 q93 40 150 104 q57 64 57 166 q0 112 -66 195.5 q-66 83.5 -179 130 q-113 46.5 -255 46.5 q-122 0 -227.5 -36.5 q-105.5 -36.5 -174 -112 q-68.5 -75.5 -78.5 -191.5 l-256 0 q12 168 103.5 295 q91.5 127 252 198 q160.5 71 380.5 71 q236 0 401.5 -79 q165.5 -79 252 -213 q86.5 -134 86.5 -300 q0 -144 -59 -243 q-59 -99 -149.5 -162.5 q-90.5 -63.5 -189 -100.5 q-98.5 -37 -178.5 -58 l-208 -56 q-57 -15 -125 -39.5 q-68 -24.5 -130 -63 q-62 -38.5 -101.5 -97 q-39.5 -58.5 -39.5 -140.5 q0 -98 56.5 -175 q56.5 -77 158 -121 q101.5 -44 237.5 -44 q186 0 314 84 q128 84 146 236 l240 0 Z"></path></symbol><symbol id="T" viewBox="0 -680 2816 2816"><path d="M780 220 l0 1828 l248 0 l0 -1828 l644 0 l0 -220 l-1536 0 l0 220 l644 0 Z"></path></symbol><symbol id="U" viewBox="0 -680 2816 2816"><path d="M1592 1300 q0 150 -65.5 266.5 q-65.5 116.5 -188.5 183 q-123 66.5 -294 66.5 q-171 0 -293.5 -66.5 q-122.5 -66.5 -188.5 -183 q-66 -116.5 -66 -266.5 l0 -1336 l-248 0 l0 1356 q0 210 98.5 374.5 q98.5 164.5 277.5 259 q179 94.5 420 94.5 q241 0 420 -94.5 q179 -94.5 277.5 -259 q98.5 -164.5 98.5 -374.5 l0 -1356 l-248 0 l0 1336 Z"></path></symbol><symbol id="V" viewBox="0 -680 2816 2816"><path d="M72 0 l752 2048 l256 0 l752 -2048 l-260 0 l-608 1724 l-24 0 l-608 -1724 l-260 0 Z"></path></symbol><symbol id="W" viewBox="0 -680 2816 2816"><path d="M876 2048 l452 -1632 l16 0 l452 1632 l256 0 l560 -2048 l-252 0 l-428 1668 l-20 0 l-436 -1668 l-280 0 l-436 1668 l-20 0 l-428 -1668 l-252 0 l560 2048 l256 0 Z"></path></symbol><symbol id="X" viewBox="0 -680 2816 2816"><path d="M76 0 l660 1024 l-660 1024 l292 0 l528 -836 l16 0 l528 836 l292 0 l-644 -1024 l644 -1024 l-292 0 l-528 852 l-16 0 l-528 -852 l-292 0 Z"></path></symbol><symbol id="Y" viewBox="0 -680 2816 2816"><path d="M812 1204 l0 844 l248 0 l0 -844 l740 -1204 l-284 0 l-568 956 l-24 0 l-568 -956 l-284 0 l740 1204 Z"></path></symbol><symbol id="Z" viewBox="0 -680 2816 2816"><path d="M1592 2048 l0 -220 l-1116 0 l1104 -1648 l0 -180 l-1412 0 l0 220 l1116 0 l-1104 1648 l0 180 l1412 0 Z"></path></symbol><symbol id="a" viewBox="0 -680 2816 2816"><path d="M668 1556 q134 0 227 -40 q93 -40 149 -97 q56 -57 80 -107 l12 0 l0 208 l236 0 l0 -1012 q0 -183 -60 -292 q-60 -109 -150.5 -163 q-90.5 -54 -187 -71.5 q-96.5 -17.5 -170.5 -17.5 q-116 0 -235.5 31.5 q-119.5 31.5 -220 110 q-100.5 78.5 -160.5 218.5 l224 80 q39 -84 135 -158 q96 -74 265 -74 q163 0 243.5 82 q80.5 82 80.5 230 l0 8 q0 57 -40.5 80 q-40.5 23 -128 32.5 q-87.5 9.5 -227.5 27.5 q-107 14 -212.5 37.5 q-105.5 23.5 -192.5 70.5 q-87 47 -139 129.5 q-52 82.5 -52 214.5 q0 150 70 255.5 q70 105.5 189 161 q119 55.5 265 55.5 ZM704 1344 q-141 0 -232.5 -62.5 q-91.5 -62.5 -91.5 -185.5 q0 -90 48.5 -142.5 q48.5 -52.5 128 -79 q79.5 -26.5 171.5 -38.5 q38 -5 99.5 -12.5 q61.5 -7.5 127 -18 q65.5 -10.5 116 -25 q50.5 -14.5 65.5 -32.5 l0 216 q0 96 -49.5 183 q-49.5 87 -146 142 q-96.5 55 -236.5 55 Z"></path></symbol><symbol id="adieresis" viewBox="0 -680 2816 2816"><path d="M668 2112 q134 0 227 -40 q93 -40 149 -97 q56 -57 80 -107 l12 0 l0 208 l236 0 l0 -1012 q0 -183 -60 -292 q-60 -109 -150.5 -163 q-90.5 -54 -187 -71.5 q-96.5 -17.5 -170.5 -17.5 q-116 0 -235.5 31.5 q-119.5 31.5 -220 110 q-100.5 78.5 -160.5 218.5 l224 80 q39 -84 135 -158 q96 -74 265 -74 q163 0 243.5 82 q80.5 82 80.5 230 l0 8 q0 57 -40.5 80 q-40.5 23 -128 32.5 q-87.5 9.5 -227.5 27.5 q-107 14 -212.5 37.5 q-105.5 23.5 -192.5 70.5 q-87 47 -139 129.5 q-52 82.5 -52 214.5 q0 150 70 255.5 q70 105.5 189 161 q119 55.5 265 55.5 ZM704 1900 q-141 0 -232.5 -62.5 q-91.5 -62.5 -91.5 -185.5 q0 -90 48.5 -142.5 q48.5 -52.5 128 -79 q79.5 -26.5 171.5 -38.5 q38 -5 99.5 -12.5 q61.5 -7.5 127 -18 q65.5 -10.5 116 -25 q50.5 -14.5 65.5 -32.5 l0 216 q0 96 -49.5 183 q-49.5 87 -146 142 q-96.5 55 -236.5 55 ZM532 284 q69 0 114.5 -48.5 q45.5 -48.5 45.5 -111.5 q0 -69 -45.5 -114.5 q-45.5 -45.5 -114.5 -45.5 q-63 0 -111.5 45.5 q-48.5 45.5 -48.5 114.5 q0 63 48.5 111.5 q48.5 48.5 111.5 48.5 ZM1108 284 q69 0 114.5 -48.5 q45.5 -48.5 45.5 -111.5 q0 -69 -45.5 -114.5 q-45.5 -45.5 -114.5 -45.5 q-63 0 -111.5 45.5 q-48.5 45.5 -48.5 114.5 q0 63 48.5 111.5 q48.5 48.5 111.5 48.5 Z"></path></symbol><symbol id="aring" viewBox="0 -680 2816 2816"><path d="M668 2400 q134 0 227 -40 q93 -40 149 -97 q56 -57 80 -107 l12 0 l0 208 l236 0 l0 -1012 q0 -183 -60 -292 q-60 -109 -150.5 -163 q-90.5 -54 -187 -71.5 q-96.5 -17.5 -170.5 -17.5 q-116 0 -235.5 31.5 q-119.5 31.5 -220 110 q-100.5 78.5 -160.5 218.5 l224 80 q39 -84 135 -158 q96 -74 265 -74 q163 0 243.5 82 q80.5 82 80.5 230 l0 8 q0 57 -40.5 80 q-40.5 23 -128 32.5 q-87.5 9.5 -227.5 27.5 q-107 14 -212.5 37.5 q-105.5 23.5 -192.5 70.5 q-87 47 -139 129.5 q-52 82.5 -52 214.5 q0 150 70 255.5 q70 105.5 189 161 q119 55.5 265 55.5 ZM704 2188 q-141 0 -232.5 -62.5 q-91.5 -62.5 -91.5 -185.5 q0 -90 48.5 -142.5 q48.5 -52.5 128 -79 q79.5 -26.5 171.5 -38.5 q38 -5 99.5 -12.5 q61.5 -7.5 127 -18 q65.5 -10.5 116 -25 q50.5 -14.5 65.5 -32.5 l0 216 q0 96 -49.5 183 q-49.5 87 -146 142 q-96.5 55 -236.5 55 ZM820 656 q102 0 183.5 -45 q81.5 -45 129 -122 q47.5 -77 47.5 -173 q0 -96 -47.5 -176 q-47.5 -80 -129 -128 q-81.5 -48 -183.5 -48 q-102 0 -184.5 48 q-82.5 48 -131 128 q-48.5 80 -48.5 176 q0 96 48.5 173 q48.5 77 131 122 q82.5 45 184.5 45 ZM820 504 q-84 0 -138 -58 q-54 -58 -54 -130 q0 -75 54 -135.5 q54 -60.5 138 -60.5 q84 0 138 60.5 q54 60.5 54 135.5 q0 72 -54 130 q-54 58 -138 58 Z"></path></symbol><symbol id="ae" viewBox="0 -680 2816 2816"><path d="M1824 1552 q156 0 281 -48.5 q125 -48.5 210 -136 q85 -87.5 121 -203.5 l-228 -64 q-30 80 -85 133.5 q-55 53.5 -130.5 80 q-75.5 26.5 -168.5 26.5 q-142 0 -250 -62.5 q-108 -62.5 -169 -183 q-61 -120.5 -61 -294.5 l0 -136 q0 -126 55 -237.5 q55 -111.5 157.5 -181 q102.5 -69.5 243.5 -69.5 q128 0 222.5 59 q94.5 59 146 161 q51.5 102 51.5 232 l-944 0 l0 204 l1184 0 l0 -100 q0 -215 -57 -362 q-57 -147 -153 -236.5 q-96 -89.5 -213 -129.5 q-117 -40 -237 -40 q-204 0 -346.5 99 q-142.5 99 -217.5 273 l-44 764 q39 201 208 326.5 q169 125.5 424 125.5 ZM704 1344 q-141 0 -232.5 -62.5 q-91.5 -62.5 -91.5 -185.5 q0 -90 48.5 -142.5 q48.5 -52.5 128 -79 q79.5 -26.5 171.5 -38.5 q38 -5 99.5 -12.5 q61.5 -7.5 127 -18 q65.5 -10.5 116 -25 q50.5 -14.5 65.5 -32.5 l0 216 q0 96 -49.5 183 q-49.5 87 -146 142 q-96.5 55 -236.5 55 ZM668 1556 q134 0 251.5 -43 q117.5 -43 200 -115 q82.5 -72 112.5 -158 l20 0 l92 -940 q-34 -111 -99 -178 q-65 -67 -144 -101 q-79 -34 -157 -45.5 q-78 -11.5 -140 -11.5 q-116 0 -235.5 31.5 q-119.5 31.5 -220 110 q-100.5 78.5 -160.5 218.5 l224 80 q39 -84 135.5 -158 q96.5 -74 264.5 -74 q162 0 243 82.5 q81 82.5 81 229.5 l0 8 q0 56 -40.5 79 q-40.5 23 -128 33 q-87.5 10 -227.5 28 q-106 13 -212 36.5 q-106 23.5 -192.5 71 q-86.5 47.5 -139 130 q-52.5 82.5 -52.5 214.5 q0 150 70 255.5 q70 105.5 189 161 q119 55.5 265 55.5 Z"></path></symbol><symbol id="b" viewBox="0 -680 2816 2816"><path d="M476 2016 l0 -236 l28 0 q26 42 74 105.5 q48 63.5 137 113 q89 49.5 237 49.5 q192 0 339 -97.5 q147 -97.5 230 -276 q83 -178.5 83 -422.5 q0 -242 -83 -420 q-83 -178 -231 -275 q-148 -97 -342 -97 q-150 0 -237.5 49.5 q-87.5 49.5 -134 112 q-46.5 62.5 -72.5 102.5 l-20 0 l0 -756 l-236 0 l0 2048 l228 0 ZM480 1248 q0 -172 50 -301.5 q50 -129.5 148 -202 q98 -72.5 242 -72.5 q150 0 249.5 76.5 q99.5 76.5 149 207 q49.5 130.5 49.5 292.5 q0 164 -50.5 297.5 q-50.5 133.5 -150 212 q-99.5 78.5 -247.5 78.5 q-142 0 -240 -74.5 q-98 -74.5 -149 -207 q-51 -132.5 -51 -306.5 Z"></path></symbol><symbol id="c" viewBox="0 -680 2816 2816"><path d="M840 1556 q170 0 298.5 -63.5 q128.5 -63.5 207 -172 q78.5 -108.5 98.5 -244.5 l-236 0 q-22 84 -74 144 q-52 60 -127 92 q-75 32 -167 32 q-140 0 -243.5 -73 q-103.5 -73 -160 -205 q-56.5 -132 -56.5 -310 q0 -174 57.5 -303.5 q57.5 -129.5 161 -201 q103.5 -71.5 241.5 -71.5 q156 0 248.5 81.5 q92.5 81.5 119.5 186.5 l236 0 q-20 -144 -103 -252 q-83 -108 -213 -168 q-130 -60 -292 -60 q-208 0 -363.5 101.5 q-155.5 101.5 -242 281 q-86.5 179.5 -86.5 413.5 q0 230 84 409 q84 179 240 281 q156 102 372 102 Z"></path></symbol><symbol id="d" viewBox="0 -680 2816 2816"><path d="M796 2048 q148 0 237 -49.5 q89 -49.5 137 -113 q48 -63.5 74 -105.5 l28 0 l0 236 l228 0 l0 -2048 l-236 0 l0 756 l-20 0 q-26 -40 -72.5 -102.5 q-46.5 -62.5 -134 -112 q-87.5 -49.5 -237.5 -49.5 q-194 0 -342 97 q-148 97 -231 275 q-83 178 -83 420 q0 244 83 422.5 q83 178.5 230 276 q147 97.5 339 97.5 ZM828 1836 q-148 0 -247.5 -78.5 q-99.5 -78.5 -150 -212 q-50.5 -133.5 -50.5 -297.5 q0 -162 49.5 -292.5 q49.5 -130.5 149 -207 q99.5 -76.5 249.5 -76.5 q144 0 242 72.5 q98 72.5 148 202 q50 129.5 50 301.5 q0 174 -51 306.5 q-51 132.5 -149 207 q-98 74.5 -240 74.5 Z"></path></symbol><symbol id="e" viewBox="0 -680 2816 2816"><path d="M860 1556 q156 0 281 -48.5 q125 -48.5 210 -136 q85 -87.5 121 -203.5 l-228 -64 q-30 80 -85 133.5 q-55 53.5 -130.5 80 q-75.5 26.5 -168.5 26.5 q-143 0 -251 -62.5 q-108 -62.5 -168.5 -183 q-60.5 -120.5 -60.5 -294.5 l0 -136 q0 -127 55 -238 q55 -111 157.5 -180.5 q102.5 -69.5 243.5 -69.5 q128 0 222.5 59 q94.5 59 146 161 q51.5 102 51.5 232 l-944 0 l0 204 l1184 0 l0 -100 q0 -215 -57 -362 q-57 -147 -153 -236.5 q-96 -89.5 -213 -129.5 q-117 -40 -237 -40 q-208 0 -363.5 101.5 q-155.5 101.5 -242 282 q-86.5 180.5 -86.5 416.5 q0 236 86.5 413.5 q86.5 177.5 247 276 q160.5 98.5 382.5 98.5 Z"></path></symbol><symbol id="edieresis" viewBox="0 -680 2816 2816"><path d="M860 2112 q156 0 281 -48.5 q125 -48.5 210 -136 q85 -87.5 121 -203.5 l-228 -64 q-30 80 -85 133.5 q-55 53.5 -130.5 80 q-75.5 26.5 -168.5 26.5 q-143 0 -251 -62.5 q-108 -62.5 -168.5 -183 q-60.5 -120.5 -60.5 -294.5 l0 -136 q0 -127 55 -238 q55 -111 157.5 -180.5 q102.5 -69.5 243.5 -69.5 q128 0 222.5 59 q94.5 59 146 161 q51.5 102 51.5 232 l-944 0 l0 204 l1184 0 l0 -100 q0 -215 -57 -362 q-57 -147 -153 -236.5 q-96 -89.5 -213 -129.5 q-117 -40 -237 -40 q-208 0 -363.5 101.5 q-155.5 101.5 -242 282 q-86.5 180.5 -86.5 416.5 q0 236 86.5 413.5 q86.5 177.5 247 276 q160.5 98.5 382.5 98.5 ZM536 288 q69 0 114.5 -48.5 q45.5 -48.5 45.5 -111.5 q0 -69 -45.5 -114.5 q-45.5 -45.5 -114.5 -45.5 q-63 0 -111.5 45.5 q-48.5 45.5 -48.5 114.5 q0 63 48.5 111.5 q48.5 48.5 111.5 48.5 ZM1112 288 q69 0 114.5 -48.5 q45.5 -48.5 45.5 -111.5 q0 -69 -45.5 -114.5 q-45.5 -45.5 -114.5 -45.5 q-63 0 -111.5 45.5 q-48.5 45.5 -48.5 114.5 q0 63 48.5 111.5 q48.5 48.5 111.5 48.5 Z"></path></symbol><symbol id="f" viewBox="0 -680 2816 2816"><path d="M72 608 l0 200 l828 0 l0 -200 l-828 0 ZM556 2144 l0 -1692 q0 -114 51.5 -173 q51.5 -59 168.5 -59 q51 0 82.5 9 q31.5 9 49.5 15 l68 -204 q-27 -12 -82 -26 q-55 -14 -142 -14 q-110 0 -209 44 q-99 44 -161 132 q-62 88 -62 220 l0 1748 l236 0 Z"></path></symbol><symbol id="g" viewBox="0 -680 2816 2816"><path d="M836 1556 q184 0 334.5 -58.5 q150.5 -58.5 240 -183 q89.5 -124.5 89.5 -322.5 l0 -1580 l-228 0 l0 244 l-24 0 q-26 -40 -73.5 -102.5 q-47.5 -62.5 -136 -112 q-88.5 -49.5 -238.5 -49.5 q-194 0 -342 96.5 q-148 96.5 -231 272 q-83 175.5 -83 411.5 q0 240 85.5 408 q85.5 168 233 256 q147.5 88 333.5 88 q150 0 238.5 -47.5 q88.5 -47.5 136 -109 q47.5 -61.5 73.5 -103.5 l20 0 l0 312 q0 192 -121 282 q-121 90 -307 90 q-139 0 -224.5 -40.5 q-85.5 -40.5 -134.5 -95 q-49 -54.5 -81 -96.5 l-188 132 q48 80 129.5 150.5 q81.5 70.5 204.5 114 q123 43.5 294 43.5 ZM828 712 q-148 0 -247.5 -69.5 q-99.5 -69.5 -150 -192 q-50.5 -122.5 -50.5 -282.5 q0 -156 49.5 -284 q49.5 -128 149 -204 q99.5 -76 249.5 -76 q144 0 242 72 q98 72 148 199 q50 127 50 293 q0 170 -51 292 q-51 122 -149 187 q-98 65 -240 65 Z"></path></symbol><symbol id="h" viewBox="0 -680 2816 2816"><path d="M452 1124 q0 -134 52.5 -228 q52.5 -94 144 -143 q91.5 -49 207.5 -49 q167 0 261.5 100.5 q94.5 100.5 94.5 283.5 l0 960 l236 0 l0 -976 q0 -198 -65.5 -326.5 q-65.5 -128.5 -183.5 -191 q-118 -62.5 -275 -62.5 q-181 0 -289.5 70.5 q-108.5 70.5 -162.5 189.5 l-20 0 l0 -752 l-236 0 l0 2048 l236 0 l0 -924 Z"></path></symbol><symbol id="i" viewBox="0 -680 2816 2816"><path d="M452 2112 l0 -1536 l-236 0 l0 1536 l236 0 ZM336 320 q69 0 118.5 -47 q49.5 -47 49.5 -113 q0 -66 -49.5 -113 q-49.5 -47 -118.5 -47 q-69 0 -118.5 47 q-49.5 47 -49.5 113 q0 66 49.5 113 q49.5 47 118.5 47 Z"></path></symbol><symbol id="dotlessi" viewBox="0 -680 2816 2816"><path d="M452 1536 l0 -1536 l-236 0 l0 1536 l236 0 Z"></path></symbol><symbol id="idieresis" viewBox="0 -680 2816 2816"><path d="M452 2112 l0 -1536 l-236 0 l0 1536 l236 0 ZM48 320 q69 0 114.5 -48.5 q45.5 -48.5 45.5 -111.5 q0 -69 -45.5 -114.5 q-45.5 -45.5 -114.5 -45.5 q-63 0 -111.5 45.5 q-48.5 45.5 -48.5 114.5 q0 63 48.5 111.5 q48.5 48.5 111.5 48.5 ZM624 320 q69 0 114.5 -48.5 q45.5 -48.5 45.5 -111.5 q0 -69 -45.5 -114.5 q-45.5 -45.5 -114.5 -45.5 q-63 0 -111.5 45.5 q-48.5 45.5 -48.5 114.5 q0 63 48.5 111.5 q48.5 48.5 111.5 48.5 Z"></path></symbol><symbol id="j" viewBox="0 -680 2816 2816"><path d="M216 1648 q0 117 -50 180.5 q-50 63.5 -158 63.5 q-12 0 -22 0 q-10 0 -22 0 l0 220 q12 0 24 0 q12 0 24 0 q148 0 245.5 -57 q97.5 -57 146 -161 q48.5 -104 48.5 -246 l0 -1648 l-236 0 l0 1648 ZM332 -256 q69 0 118.5 -47 q49.5 -47 49.5 -113 q0 -66 -49.5 -113 q-49.5 -47 -118.5 -47 q-69 0 -118.5 47 q-49.5 47 -49.5 113 q0 66 49.5 113 q49.5 47 118.5 47 Z"></path></symbol><symbol id="k" viewBox="0 -680 2816 2816"><path d="M708 1236 l20 0 l716 -724 l-292 0 l-672 684 l-48 0 l4 292 l272 -252 ZM452 2048 l0 -2048 l-236 0 l0 2048 l236 0 ZM1492 2048 l-732 -924 l-168 164 l600 760 l300 0 Z"></path></symbol><symbol id="l" viewBox="0 -680 2816 2816"><path d="M216 0 l0 2048 l236 0 l0 -2048 l-236 0 Z"></path></symbol><symbol id="m" viewBox="0 -680 2816 2816"><path d="M452 1556 l0 -960 q0 -113 48.5 -199.5 q48.5 -86.5 128 -135.5 q79.5 -49 171.5 -49 q134 0 219 80.5 q85 80.5 85 211.5 l0 1052 l240 0 l0 -1000 q0 -149 89 -246.5 q89 -97.5 251 -97.5 q126 0 219 73 q93 73 93 243 l0 1028 l236 0 l0 -1028 q0 -271 -131 -399.5 q-131 -128.5 -337 -128.5 q-165 0 -283 70.5 q-118 70.5 -177 189.5 l-16 0 q-57 -123 -158.5 -191.5 q-101.5 -68.5 -253.5 -68.5 q-150 0 -257 68.5 q-107 68.5 -155 191.5 l-20 0 l0 -240 l-228 0 l0 1536 l236 0 Z"></path></symbol><symbol id="n" viewBox="0 -680 2816 2816"><path d="M452 632 q0 -134 51 -228 q51 -94 139.5 -143 q88.5 -49 201.5 -49 q164 0 258 101.5 q94 101.5 94 282.5 l0 960 l236 0 l0 -976 q0 -196 -65 -324.5 q-65 -128.5 -182 -192 q-117 -63.5 -273 -63.5 q-174 0 -284 71.5 q-110 71.5 -164 188.5 l-20 0 l0 -240 l-228 0 l0 1536 l236 0 l0 -924 Z"></path></symbol><symbol id="o" viewBox="0 -680 2816 2816"><path d="M840 1556 q208 0 364.5 -99 q156.5 -99 244 -277 q87.5 -178 87.5 -416 q0 -240 -87.5 -419 q-87.5 -179 -244 -278 q-156.5 -99 -364.5 -99 q-208 0 -364.5 99 q-156.5 99 -244 278 q-87.5 179 -87.5 419 q0 238 87.5 416 q87.5 178 244 277 q156.5 99 364.5 99 ZM840 1344 q-158 0 -260 -81 q-102 -81 -151 -213 q-49 -132 -49 -286 q0 -154 49 -287 q49 -133 151 -215 q102 -82 260 -82 q158 0 260 82 q102 82 151 215 q49 133 49 287 q0 154 -49 286 q-49 132 -151 213 q-102 81 -260 81 Z"></path></symbol><symbol id="odieresis" viewBox="0 -680 2816 2816"><path d="M840 2112 q208 0 364.5 -99 q156.5 -99 244 -277 q87.5 -178 87.5 -416 q0 -240 -87.5 -419 q-87.5 -179 -244 -278 q-156.5 -99 -364.5 -99 q-208 0 -364.5 99 q-156.5 99 -244 278 q-87.5 179 -87.5 419 q0 238 87.5 416 q87.5 178 244 277 q156.5 99 364.5 99 ZM840 1900 q-158 0 -260 -81 q-102 -81 -151 -213 q-49 -132 -49 -286 q0 -154 49 -287 q49 -133 151 -215 q102 -82 260 -82 q158 0 260 82 q102 82 151 215 q49 133 49 287 q0 154 -49 286 q-49 132 -151 213 q-102 81 -260 81 ZM552 288 q69 0 114.5 -48.5 q45.5 -48.5 45.5 -111.5 q0 -69 -45.5 -114.5 q-45.5 -45.5 -114.5 -45.5 q-63 0 -111.5 45.5 q-48.5 45.5 -48.5 114.5 q0 63 48.5 111.5 q48.5 48.5 111.5 48.5 ZM1128 288 q69 0 114.5 -48.5 q45.5 -48.5 45.5 -111.5 q0 -69 -45.5 -114.5 q-45.5 -45.5 -114.5 -45.5 q-63 0 -111.5 45.5 q-48.5 45.5 -48.5 114.5 q0 63 48.5 111.5 q48.5 48.5 111.5 48.5 Z"></path></symbol><symbol id="oslash" viewBox="0 -680 2816 2816"><path d="M1452 20 l-152 -104 l-1072 1588 l152 104 l1072 -1588 ZM840 1556 q208 0 364.5 -99 q156.5 -99 244 -277 q87.5 -178 87.5 -416 q0 -240 -87.5 -419 q-87.5 -179 -244 -278 q-156.5 -99 -364.5 -99 q-208 0 -364.5 99 q-156.5 99 -244 278 q-87.5 179 -87.5 419 q0 238 87.5 416 q87.5 178 244 277 q156.5 99 364.5 99 ZM840 1344 q-158 0 -260 -81 q-102 -81 -151 -213 q-49 -132 -49 -286 q0 -154 49 -287 q49 -133 151 -215 q102 -82 260 -82 q158 0 260 82 q102 82 151 215 q49 133 49 287 q0 154 -49 286 q-49 132 -151 213 q-102 81 -260 81 Z"></path></symbol><symbol id="p" viewBox="0 -680 2816 2816"><path d="M452 1556 l0 -812 l20 0 q26 42 74 105.5 q48 63.5 137 113 q89 49.5 237 49.5 q192 0 339 -97.5 q147 -97.5 230 -276 q83 -178.5 83 -422.5 q0 -242 -83 -420 q-83 -178 -231 -275 q-148 -97 -342 -97 q-150 0 -237.5 49.5 q-87.5 49.5 -134 112 q-46.5 62.5 -72.5 102.5 l-28 0 l0 -244 l-228 0 l0 2112 l236 0 ZM448 212 q0 -172 50 -301.5 q50 -129.5 148 -202 q98 -72.5 242 -72.5 q150 0 249.5 76.5 q99.5 76.5 149 207 q49.5 130.5 49.5 292.5 q0 164 -50.5 297.5 q-50.5 133.5 -150 212 q-99.5 78.5 -247.5 78.5 q-142 0 -240 -74.5 q-98 -74.5 -149 -207 q-51 -132.5 -51 -306.5 Z"></path></symbol><symbol id="q" viewBox="0 -680 2816 2816"><path d="M1500 1556 l0 -2112 l-228 0 l0 244 l-28 0 q-26 -40 -72.5 -102.5 q-46.5 -62.5 -134 -112 q-87.5 -49.5 -237.5 -49.5 q-194 0 -342 97 q-148 97 -231 275 q-83 178 -83 420 q0 244 83 422.5 q83 178.5 230 276 q147 97.5 339 97.5 q148 0 237 -49.5 q89 -49.5 137 -113 q48 -63.5 74 -105.5 l20 0 l0 812 l236 0 ZM828 800 q-148 0 -247.5 -78.5 q-99.5 -78.5 -150 -212 q-50.5 -133.5 -50.5 -297.5 q0 -162 49.5 -292.5 q49.5 -130.5 149 -207 q99.5 -76.5 249.5 -76.5 q144 0 242 72.5 q98 72.5 148 202 q50 129.5 50 301.5 q0 174 -51 306.5 q-51 132.5 -149 207 q-98 74.5 -240 74.5 Z"></path></symbol><symbol id="r" viewBox="0 -680 2816 2816"><path d="M452 1560 l0 -972 q0 -104 50.5 -185.5 q50.5 -81.5 138 -128 q87.5 -46.5 199.5 -46.5 q47 0 89.5 6.5 q42.5 6.5 54.5 9.5 l0 -240 q-20 -2 -59 -3 q-39 -1 -65 -1 q-138 0 -248 71 q-110 71 -152 185 l-16 0 l0 -232 l-228 0 l0 1536 l236 0 Z"></path></symbol><symbol id="s" viewBox="0 -680 2816 2816"><path d="M1304 332 q-55 -164 -185.5 -264 q-130.5 -100 -358.5 -100 q-162 0 -289.5 57 q-127.5 57 -201 157 q-73.5 100 -73.5 230 q0 159 98.5 264.5 q98.5 105.5 309.5 155.5 l256 60 q116 27 172 81.5 q56 54.5 56 134.5 q0 99 -97.5 169.5 q-97.5 70.5 -262.5 70.5 q-145 0 -234.5 -62 q-89.5 -62 -121.5 -186 l-224 56 q41 196 195 298 q154 102 389 102 q179 0 314 -60 q135 -60 210.5 -164 q75.5 -104 75.5 -236 q0 -161 -101 -263.5 q-101 -102.5 -307 -152.5 l-228 -56 q-136 -34 -200 -85 q-64 -51 -64 -139 q0 -99 93.5 -163.5 q93.5 -64.5 234.5 -64.5 q103 0 169 33 q66 33 104.5 83.5 q38.5 50.5 58.5 103.5 l212 -60 Z"></path></symbol><symbol id="germandbls" viewBox="0 -680 2816 2816"><path d="M484 2076 l0 -1524 q0 -147 102.5 -239.5 q102.5 -92.5 257.5 -92.5 q165 0 260.5 100 q95.5 100 95.5 244 q0 92 -40 174.5 q-40 82.5 -113.5 134 q-73.5 51.5 -174.5 51.5 l-128 0 l0 224 l180 0 q182 0 289 103 q107 103 107 261 q0 100 -44 178 q-44 78 -123.5 122 q-79.5 44 -188.5 44 l-228 0 l0 220 l224 0 q180 0 314 -73.5 q134 -73.5 208 -201 q74 -127.5 74 -289.5 q0 -214 -124.5 -347.5 q-124.5 -133.5 -319.5 -152.5 l0 -20 q144 -50 234 -169.5 q90 -119.5 90 -294.5 q0 -164 -78 -282 q-78 -118 -213 -182 q-135 -64 -305 -64 q-174 0 -307.5 66.5 q-133.5 66.5 -209 190.5 q-75.5 124 -75.5 295 l0 1524 l236 0 Z"></path></symbol><symbol id="t" viewBox="0 -680 2816 2816"><path d="M88 348 l0 200 l796 0 l0 -200 l-796 0 ZM320 1508 q0 134 62.5 222 q62.5 88 158 131 q95.5 43 195.5 43 q66 0 109 -9.5 q43 -9.5 67 -18.5 l-48 -212 q-15 3 -40 7.5 q-25 4.5 -64 4.5 q-52 0 -98.5 -16.5 q-46.5 -16.5 -76 -66 q-29.5 -49.5 -29.5 -149.5 l0 -1464 l-236 0 l0 1528 Z"></path></symbol><symbol id="u" viewBox="0 -680 2816 2816"><path d="M1184 888 q0 144 -62.5 237 q-62.5 93 -154 138 q-91.5 45 -179.5 45 q-147 0 -241.5 -100 q-94.5 -100 -94.5 -268 l0 -960 l-236 0 l0 976 q0 196 64 324.5 q64 128.5 176 192 q112 63.5 256 63.5 q174 0 288 -81.5 q114 -81.5 168 -198.5 l16 0 l0 260 l236 0 l0 -1536 l-236 0 l0 908 Z"></path></symbol><symbol id="mu" viewBox="0 -680 2816 2816"><path d="M452 1536 l0 -804 l12 0 q63 121 173.5 184.5 q110.5 63.5 238.5 63.5 q128 0 239 -63.5 q111 -63.5 173 -184.5 l12 0 l0 228 l236 0 l0 -1536 l-236 0 l0 908 q0 124 -52.5 218.5 q-52.5 94.5 -148 148 q-95.5 53.5 -223.5 53.5 q-128 0 -223.5 -53 q-95.5 -53 -148 -147.5 q-52.5 -94.5 -52.5 -219.5 l0 -908 l-236 0 l0 2112 l236 0 Z"></path></symbol><symbol id="v" viewBox="0 -680 2816 2816"><path d="M1216 0 l-424 1224 l-16 0 l-424 -1224 l-256 0 l568 1536 l240 0 l568 -1536 l-256 0 Z"></path></symbol><symbol id="w" viewBox="0 -680 2816 2816"><path d="M796 1536 l336 -1180 l24 0 l336 1180 l232 0 l468 -1536 l-248 0 l-332 1172 l-16 0 l-324 -1172 l-252 0 l-328 1176 l-16 0 l-332 -1176 l-248 0 l468 1536 l232 0 Z"></path></symbol><symbol id="x" viewBox="0 -680 2816 2816"><path d="M120 0 l488 768 l-488 768 l272 0 l368 -596 l368 596 l272 0 l-496 -768 l496 -768 l-272 0 l-368 628 l-368 -628 l-272 0 Z"></path></symbol><symbol id="y" viewBox="0 -680 2816 2816"><path d="M368 1536 q107 0 192.5 -38 q85.5 -38 150.5 -116.5 q65 -78.5 109 -197.5 l652 -1760 l-256 0 l-424 1224 l-16 0 l-424 -1224 l-256 0 l568 1544 l-44 120 q-43 117 -94.5 169.5 q-51.5 52.5 -117.5 58.5 q-66 6 -152 -16 l-60 208 q18 9 65 18.5 q47 9.5 107 9.5 Z"></path></symbol><symbol id="ydieresis" viewBox="0 -680 2816 2816"><path d="M368 2112 q107 0 192.5 -38 q85.5 -38 150.5 -116.5 q65 -78.5 109 -197.5 l652 -1760 l-256 0 l-424 1224 l-16 0 l-424 -1224 l-256 0 l568 1544 l-44 120 q-43 117 -94.5 169.5 q-51.5 52.5 -117.5 58.5 q-66 6 -152 -16 l-60 208 q18 9 65 18.5 q47 9.5 107 9.5 ZM496 -256 q69 0 114.5 -48.5 q45.5 -48.5 45.5 -111.5 q0 -69 -45.5 -114.5 q-45.5 -45.5 -114.5 -45.5 q-63 0 -111.5 45.5 q-48.5 45.5 -48.5 114.5 q0 63 48.5 111.5 q48.5 48.5 111.5 48.5 ZM1072 -256 q69 0 114.5 -48.5 q45.5 -48.5 45.5 -111.5 q0 -69 -45.5 -114.5 q-45.5 -45.5 -114.5 -45.5 q-63 0 -111.5 45.5 q-48.5 45.5 -48.5 114.5 q0 63 48.5 111.5 q48.5 48.5 111.5 48.5 Z"></path></symbol><symbol id="z" viewBox="0 -680 2816 2816"><path d="M1376 1536 l0 -220 l-876 0 l0 -16 l848 -1112 l0 -188 l-1148 0 l0 220 l844 0 l0 16 l-872 1120 l0 180 l1204 0 Z"></path></symbol><symbol id="Thorn" viewBox="0 -680 2816 2816"><path d="M232 2048 l248 0 l0 -2048 l-248 0 l0 2048 ZM348 644 l528 0 q142 0 240 44.5 q98 44.5 149 128 q51 83.5 51 199.5 q0 116 -51 197.5 q-51 81.5 -149 124 q-98 42.5 -240 42.5 l-528 0 l0 220 l528 0 q218 0 369 -79.5 q151 -79.5 229 -213 q78 -133.5 78 -295.5 q0 -162 -78 -295.5 q-78 -133.5 -229 -213 q-151 -79.5 -369 -79.5 l-528 0 l0 220 Z"></path></symbol><symbol id="eth" viewBox="0 -680 2816 2816"><path d="M1260 48 l-820 396 l68 148 l820 -396 l-68 -148 ZM816 2176 q202 0 353 -92.5 q151 -92.5 235 -268 q84 -175.5 84 -423.5 q0 -263 -80.5 -485.5 q-80.5 -222.5 -215.5 -402 q-135 -179.5 -299.5 -314.5 q-164.5 -135 -332.5 -222 l-104 168 q238 122 391 267 q153 145 241 291 q88 146 132 270 l-20 0 q-34 -60 -94 -120 q-60 -60 -147 -100 q-87 -40 -203 -40 q-170 0 -309 93 q-139 93 -221 259 q-82 166 -82 384 q0 214 82 380 q82 166 233 261 q151 95 357 95 ZM816 1964 q-154 0 -250 -74.5 q-96 -74.5 -141 -194 q-45 -119.5 -45 -255.5 q0 -144 48 -267 q48 -123 145 -198 q97 -75 243 -75 q158 0 256 85 q98 85 143 213 q45 128 45 258 q0 142 -50 257 q-50 115 -149 183 q-99 68 -245 68 Z"></path></symbol><symbol id="thorn" viewBox="0 -680 2816 2816"><path d="M216 2048 l236 0 l0 -864 l-60 -496 l60 -388 l0 -876 l-236 0 l0 2624 ZM356 1236 l116 0 q26 42 74 105.5 q48 63.5 137 113 q89 49.5 237 49.5 q192 0 339 -97.5 q147 -97.5 230 -276 q83 -178.5 83 -422.5 q0 -242 -83 -420 q-83 -178 -231 -275 q-148 -97 -342 -97 q-150 0 -237.5 49.5 q-87.5 49.5 -134 112 q-46.5 62.5 -72.5 102.5 l-116 0 l0 1056 ZM1336 704 q0 164 -50.5 297.5 q-50.5 133.5 -150 212 q-99.5 78.5 -247.5 78.5 q-142 0 -240 -74.5 q-98 -74.5 -149 -207 q-51 -132.5 -51 -306.5 q0 -172 50 -301.5 q50 -129.5 148 -202 q98 -72.5 242 -72.5 q150 0 249.5 76.5 q99.5 76.5 149 207 q49.5 130.5 49.5 292.5 Z"></path></symbol><symbol id="dollar" viewBox="0 -680 2816 2816"><path d="M980 2304 l0 -2560 l-164 0 l0 2560 l164 0 ZM1608 512 q-5 -155 -95.5 -277 q-90.5 -122 -244.5 -192.5 q-154 -70.5 -352 -70.5 q-196 0 -354.5 71.5 q-158.5 71.5 -252 200 q-93.5 128.5 -93.5 300.5 q0 207 140 335 q140 128 380 197 l252 72 q108 30 201 70 q93 40 150 104 q57 64 57 166 q0 112 -66 195.5 q-66 83.5 -179 130 q-113 46.5 -255 46.5 q-122 0 -227.5 -36.5 q-105.5 -36.5 -174 -112 q-68.5 -75.5 -78.5 -191.5 l-256 0 q12 168 103.5 295 q91.5 127 252 198 q160.5 71 380.5 71 q236 0 401.5 -79 q165.5 -79 252 -213 q86.5 -134 86.5 -300 q0 -144 -59 -243 q-59 -99 -149.5 -162.5 q-90.5 -63.5 -189 -100.5 q-98.5 -37 -178.5 -58 l-208 -56 q-57 -15 -125 -39.5 q-68 -24.5 -130 -63 q-62 -38.5 -101.5 -97 q-39.5 -58.5 -39.5 -140.5 q0 -98 56.5 -175 q56.5 -77 158 -121 q101.5 -44 237.5 -44 q186 0 314 84 q128 84 146 236 l240 0 Z"></path></symbol><symbol id="cent" viewBox="0 -680 2816 2816"><path d="M908 2048 l0 -2048 l-164 0 l0 2048 l164 0 ZM840 1818 q170 0 298.5 -63.5 q128.5 -63.5 207 -172 q78.5 -108.5 98.5 -244.5 l-236 0 q-22 84 -74 144 q-52 60 -127 92 q-75 32 -167 32 q-140 0 -243.5 -73 q-103.5 -73 -160 -205 q-56.5 -132 -56.5 -310 q0 -174 57.5 -303.5 q57.5 -129.5 161 -201 q103.5 -71.5 241.5 -71.5 q156 0 248.5 81.5 q92.5 81.5 119.5 186.5 l236 0 q-20 -144 -103 -252 q-83 -108 -213 -168 q-130 -60 -292 -60 q-208 0 -363.5 101.5 q-155.5 101.5 -242 281 q-86.5 179.5 -86.5 413.5 q0 230 84 409 q84 179 240 281 q156 102 372 102 Z"></path></symbol><symbol id="yen" viewBox="0 -680 2816 2816"><path d="M40 0 l608 1220 l192 -80 l-524 -1140 l-276 0 ZM896 1220 l608 -1220 l-276 0 l-524 1140 l192 80 ZM648 972 l0 1076 l248 0 l0 -1076 l-248 0 ZM200 1028 l0 180 l1144 0 l0 -180 l-1144 0 ZM200 1424 l0 180 l1144 0 l0 -180 l-1144 0 Z"></path></symbol><symbol id="sterling" viewBox="0 -680 2816 2816"><path d="M1540 1856 l-1356 0 l0 220 l1356 0 l0 -220 ZM1108 1052 l-932 0 l0 228 l932 0 l0 -228 ZM612 648 q0 -148 57 -242.5 q57 -94.5 146 -140 q89 -45.5 185 -45.5 q90 0 170.5 37.5 q80.5 37.5 126 110 q45.5 72.5 31.5 176.5 l232 64 q29 -114 -3 -222.5 q-32 -108.5 -112 -195.5 q-80 -87 -197 -138.5 q-117 -51.5 -260 -51.5 q-156 0 -298.5 71 q-142.5 71 -230 215 q-87.5 144 -79.5 362 l28 868 q2 60 -9 140 q-11 80 -43 140 q-32 60 -92 60 l248 56 q81 -57 109.5 -163.5 q28.5 -106.5 22.5 -232.5 l-32 -868 Z"></path></symbol><symbol id="uni-8364" viewBox="0 -680 2816 2816"><path d="M144 724 l-72 200 l1304 0 l92 -200 l-1324 0 ZM144 1124 l-72 200 l1132 0 l92 -200 l-1152 0 ZM1704 184 q-108 -102 -246.5 -157 q-138.5 -55 -297.5 -55 q-246 0 -435.5 128 q-189.5 128 -297 364 q-107.5 236 -107.5 560 q0 324 107.5 560 q107.5 236 297 364 q189.5 128 435.5 128 q153 0 294 -50.5 q141 -50.5 246 -149.5 l-100 -208 q-58 50 -126.5 90 q-68.5 40 -147 63 q-78.5 23 -166.5 23 q-170 0 -306 -94 q-136 -94 -215 -277 q-79 -183 -79 -449 q0 -266 79 -449 q79 -183 215 -277 q136 -94 306 -94 q86 0 164 23 q78 23 149 65 q71 42 135 100 l96 -208 Z"></path></symbol><symbol id="zero" viewBox="0 -680 2816 2816"><path d="M880 2076 q226 0 385 -123.5 q159 -123.5 243 -359 q84 -235.5 84 -569.5 q0 -332 -84.5 -567.5 q-84.5 -235.5 -244 -360 q-159.5 -124.5 -383.5 -124.5 q-224 0 -383.5 124.5 q-159.5 124.5 -244 360 q-84.5 235.5 -84.5 567.5 q0 334 84 569.5 q84 235.5 243 359 q159 123.5 385 123.5 ZM880 1856 q-149 0 -254.5 -97 q-105.5 -97 -161.5 -283 q-56 -186 -56 -452 q0 -399 125 -617.5 q125 -218.5 347 -218.5 q148 0 253.5 98 q105.5 98 162 285 q56.5 187 56.5 453 q0 400 -124 616 q-124 216 -348 216 Z"></path></symbol><symbol id="one" viewBox="0 -680 2816 2816"><path d="M684 0 l-512 340 l0 252 l500 -332 l12 0 l0 1788 l248 0 l0 -2048 l-248 0 Z"></path></symbol><symbol id="two" viewBox="0 -680 2816 2816"><path d="M1504 2076 l0 -220 l-952 0 l0 -16 l460 -492 q176 -189 275.5 -320.5 q99.5 -131.5 140 -239 q40.5 -107.5 40.5 -220.5 q0 -158 -79 -287 q-79 -129 -218 -205 q-139 -76 -319 -76 q-179 0 -322.5 76 q-143.5 76 -226.5 212 q-83 136 -83 316 l236 0 q0 -117 47.5 -204 q47.5 -87 135 -135.5 q87.5 -48.5 205.5 -48.5 q111 0 200 43 q89 43 140.5 122 q51.5 79 51.5 187 q0 94 -37.5 179.5 q-37.5 85.5 -114.5 182 q-77 96.5 -196 226.5 l-676 740 l0 180 l1292 0 Z"></path></symbol><symbol id="three" viewBox="0 -680 2816 2816"><path d="M904 2076 q199 0 355 -76 q156 -76 246.5 -208.5 q90.5 -132.5 90.5 -299.5 q0 -195 -109 -327.5 q-109 -132.5 -303 -164.5 l0 -16 q155 -47 245.5 -169 q90.5 -122 90.5 -295 q0 -145 -73 -270 q-73 -125 -209 -201.5 q-136 -76.5 -326 -76.5 q-177 0 -324.5 68 q-147.5 68 -238.5 189.5 q-91 121.5 -97 282.5 l240 0 q5 -102 64 -174.5 q59 -72.5 152.5 -111 q93.5 -38.5 199.5 -38.5 q113 0 196.5 43 q83.5 43 129.5 120 q46 77 46 181 q0 108 -52.5 188 q-52.5 80 -145 124 q-92.5 44 -214.5 44 l-164 0 l0 220 l164 0 q156 0 264 49 q108 49 164 135.5 q56 86.5 56 199.5 q0 108 -58 190 q-58 82 -160 128 q-102 46 -234 46 q-118 0 -215 -39 q-97 -39 -157 -110.5 q-60 -71.5 -68 -170.5 l-252 0 q8 161 98.5 282.5 q90.5 121.5 245 189.5 q154.5 68 352.5 68 Z"></path></symbol><symbol id="four" viewBox="0 -680 2816 2816"><path d="M1644 1628 l0 -220 l-1212 0 l0 -16 l680 -1076 l100 0 l0 -316 l-148 0 l-900 1424 l0 204 l1480 0 ZM1364 2048 l0 -2048 l-236 0 l0 1471 l0 95 l0 482 l236 0 Z"></path></symbol><symbol id="five" viewBox="0 -680 2816 2816"><path d="M852 2048 q195 0 348 -88.5 q153 -88.5 240.5 -242 q87.5 -153.5 87.5 -349.5 q0 -199 -84.5 -354 q-84.5 -155 -232 -244.5 q-147.5 -89.5 -335.5 -89.5 q-103 0 -198 33 q-95 33 -158 83 l-12 0 l72 -604 l856 0 l0 -220 l-1064 0 l-124 1008 l232 28 q64 -46 163 -75.5 q99 -29.5 193 -28.5 q131 1 233 62 q102 61 160.5 166.5 q58.5 105.5 58.5 239.5 q0 131 -56.5 234.5 q-56.5 103.5 -155 162.5 q-98.5 59 -224.5 59 q-157 0 -269.5 -90.5 q-112.5 -90.5 -126.5 -229.5 l-240 0 q8 156 93 278 q85 122 226 192 q141 70 317 70 Z"></path></symbol><symbol id="six" viewBox="0 -680 2816 2816"><path d="M892 2075.96 q207 2 360.5 -90.5 q153.5 -92.5 238.5 -250 q85 -157.5 85 -347.5 q0 -198 -88 -351.5 q-88 -153.5 -234 -241 q-146 -87.5 -322 -87.5 q-105 0 -199 33 q-94 33 -171.5 93.5 q-77.5 60.5 -133.5 145.5 l-16 0 q1 -374 137.5 -581 q136.5 -207 374.5 -207 q162 0 260 91 q98 91 132 229 l244 0 q-25 -159 -110 -281 q-85 -122 -219.5 -190.5 q-134.5 -68.5 -306.5 -68.5 q-173 0 -310.5 75 q-137.5 75 -234.5 219.5 q-97 144.5 -148 355 q-51 210.5 -51 482.5 q0 284 63 471.5 q63 187.5 167 297 q104 109.5 230 155.5 q126 46 252 48 ZM892 1855.96 q-128 0 -228.5 -65 q-100.5 -65 -158 -171 q-57.5 -106 -57.5 -228 q0 -92 35 -175.5 q35 -83.5 96.5 -148.5 q61.5 -65 143.5 -102.5 q82 -37.5 177 -37.5 q126 0 224.5 62 q98.5 62 155 166.5 q56.5 104.5 56.5 231.5 q0 130 -58.5 236 q-58.5 106 -159 169 q-100.5 63 -226.5 63 Z"></path></symbol><symbol id="seven" viewBox="0 -680 2816 2816"><path d="M536 2048 l912 -1816 l0 -232 l-1312 0 l0 220 l1056 0 l0 16 l-916 1812 l260 0 Z"></path></symbol><symbol id="eight" viewBox="0 -680 2816 2816"><path d="M868 2076 q205 0 361.5 -73.5 q156.5 -73.5 245 -203 q88.5 -129.5 89.5 -295.5 q-1 -130 -54 -240.5 q-53 -110.5 -142 -185 q-89 -74.5 -200 -94.5 l0 -12 q144 -38 231.5 -165.5 q87.5 -127.5 88.5 -290.5 q-1 -156 -81.5 -279 q-80.5 -123 -220.5 -194 q-140 -71 -318 -71 q-180 0 -320.5 71 q-140.5 71 -220.5 194 q-80 123 -79 279 q-1 163 86 290.5 q87 127.5 234 165.5 l0 12 q-112 20 -202.5 94.5 q-90.5 74.5 -142.5 185 q-52 110.5 -51 240.5 q-1 166 87 295.5 q88 129.5 245.5 203 q157.5 73.5 363.5 73.5 ZM868 1856 q-140 0 -242 -45 q-102 -45 -156.5 -127 q-54.5 -82 -53.5 -192 q-1 -116 57.5 -205 q58.5 -89 161 -140 q102.5 -51 233.5 -51 q130 0 231.5 51 q101.5 51 160.5 140 q59 89 60 205 q-1 110 -56 192 q-55 82 -156 127 q-101 45 -240 45 ZM868 884 q-112 0 -198 -44 q-86 -44 -134.5 -123 q-48.5 -79 -47.5 -185 q-1 -104 46 -181.5 q47 -77.5 133 -120 q86 -42.5 201 -42.5 q113 0 198 42.5 q85 42.5 133 120 q48 77.5 49 181.5 q-1 106 -50 185 q-49 79 -134.5 123 q-85.5 44 -195.5 44 Z"></path></symbol><symbol id="nine" viewBox="0 -680 2816 2816"><path d="M864 -27.91 q-208 -3 -361.5 90 q-153.5 93 -238 249.5 q-84.5 156.5 -84.5 344.5 q0 198 87.5 351.5 q87.5 153.5 234 241 q146.5 87.5 322.5 87.5 q106 0 200 -33 q94 -33 171 -94 q77 -61 133 -145 l16 0 q0 378 -137.5 585 q-137.5 207 -374.5 207 q-162 0 -260.5 -91.5 q-98.5 -91.5 -131.5 -232.5 l-244 0 q24 162 109.5 284.5 q85.5 122.5 220 191 q134.5 68.5 306.5 68.5 q173 0 310.5 -75 q137.5 -75 234 -220 q96.5 -145 148 -356.5 q51.5 -211.5 51.5 -484.5 q0 -282 -63 -469 q-63 -187 -167 -295.5 q-104 -108.5 -230 -155.5 q-126 -47 -252 -48 ZM864 192.09 q128 0 228.5 65 q100.5 65 158 170 q57.5 105 57.5 225 q0 91 -35 174.5 q-35 83.5 -96.5 149 q-61.5 65.5 -143.5 103 q-82 37.5 -177 37.5 q-126 0 -224.5 -61.5 q-98.5 -61.5 -155 -166 q-56.5 -104.5 -56.5 -232.5 q0 -128 58.5 -233.5 q58.5 -105.5 159 -168 q100.5 -62.5 226.5 -62.5 Z"></path></symbol><symbol id="ampersand" viewBox="0 -680 2816 2816"><path d="M796 2068 q147 0 298 -54.5 q151 -54.5 250 -165.5 q12 -15 22 -30 q10 -15 22 -30 q36 -36 95 -109 q59 -73 106 -202 q47 -129 47 -333 l-228 0 q0 165 -52.5 297 q-52.5 132 -142 226 q-89.5 94 -199.5 143.5 q-110 49.5 -226 49.5 q-122 0 -213 -51 q-91 -51 -141 -134 q-50 -83 -50 -179 q0 -42 49 -138 q49 -96 187 -198 l408 -304 q126 -93 199 -201 q73 -108 73 -255 q0 -114 -60 -211.5 q-60 -97.5 -171 -157 q-111 -59.5 -265 -59.5 q-150 0 -261.5 58.5 q-111.5 58.5 -173 163 q-61.5 104.5 -61.5 242.5 q0 120 52 223 q52 103 140 209 q88 106 196 236 l776 936 l284 0 l-940 -1148 q-66 -80 -127.5 -156.5 q-61.5 -76.5 -101 -150 q-39.5 -73.5 -39.5 -145.5 q0 -64 33.5 -124.5 q33.5 -60.5 93 -100 q59.5 -39.5 137.5 -39.5 q111 0 179.5 73 q68.5 73 68.5 151 q0 105 -52.5 170 q-52.5 65 -139.5 122 l-296 220 q-126 86 -222.5 171.5 q-96.5 85.5 -151 185 q-54.5 99.5 -54.5 227.5 q0 166 79 295 q79 129 225 203 q146 74 348 74 Z"></path></symbol><symbol id="exclam" viewBox="0 -680 2816 2816"><path d="M256 -16 l20 1472 l232 0 l20 -1472 l-272 0 ZM392 2048 q50 0 90.5 -24.5 q40.5 -24.5 65 -65.5 q24.5 -41 24.5 -90 q0 -74 -53 -127 q-53 -53 -127 -53 q-74 0 -127 53 q-53 53 -53 127 q0 74 53 127 q53 53 127 53 Z"></path></symbol><symbol id="exclamdown" viewBox="0 -680 2816 2816"><path d="M508 72 l-232 0 l-20 1472 l272 0 l-20 -1472 ZM392 -520 q-49 0 -90 24.5 q-41 24.5 -65.5 65 q-24.5 40.5 -24.5 90.5 q0 74 53 127 q53 53 127 53 q74 0 127 -53 q53 -53 53 -127 q0 -74 -53 -127 q-53 -53 -127 -53 Z"></path></symbol><symbol id="question" viewBox="0 -680 2816 2816"><path d="M764 1484 l0 -12 q2 -124 26 -207 q24 -83 77 -143.5 q53 -60.5 141 -115.5 q88 -54 150.5 -124 q62.5 -70 96 -159 q33.5 -89 33.5 -199 q0 -156 -71.5 -278 q-71.5 -122 -202 -192 q-130.5 -70 -306.5 -70 q-162 0 -294.5 64 q-132.5 64 -213 185 q-80.5 121 -88.5 291 l252 0 q8 -118 59 -191 q51 -73 127 -107 q76 -34 158 -34 q94 0 171 39 q77 39 123 111 q46 72 46 170 q0 79 -27.5 144 q-27.5 65 -74.5 114.5 q-47 49.5 -106 85.5 q-98 59 -168 129 q-70 70 -108 183 q-38 113 -40 304 l0 12 l240 0 ZM652 2076 q50 0 90.5 -24.5 q40.5 -24.5 65 -65.5 q24.5 -41 24.5 -90 q0 -74 -53 -127 q-53 -53 -127 -53 q-74 0 -127 53 q-53 53 -53 127 q0 74 53 127 q53 53 127 53 Z"></path></symbol><symbol id="questiondown" viewBox="0 -680 2816 2816"><path d="M664 48 l0 12 q-2 124 -26 207 q-24 83 -77 143.5 q-53 60.5 -141 115.5 q-88 53 -150.5 123 q-62.5 70 -96 159 q-33.5 89 -33.5 200 q0 156 71.5 278 q71.5 122 202 192 q130.5 70 306.5 70 q162 0 294.5 -64 q132.5 -64 213.5 -185 q81 -121 88 -291 l-252 0 q-7 118 -58.5 191 q-51.5 73 -127.5 107 q-76 34 -158 34 q-94 0 -171 -39 q-77 -39 -123 -111 q-46 -72 -46 -170 q0 -80 27.5 -144.5 q27.5 -64.5 75 -114.5 q47.5 -50 105.5 -85 q98 -60 168 -129.5 q70 -69.5 108.5 -183 q38.5 -113.5 39.5 -303.5 l0 -12 l-240 0 ZM776 -544 q-49 0 -90 24.5 q-41 24.5 -65.5 65 q-24.5 40.5 -24.5 90.5 q0 74 53 127 q53 53 127 53 q74 0 127 -53 q53 -53 53 -127 q0 -74 -53 -127 q-53 -53 -127 -53 Z"></path></symbol><symbol id="parenleft" viewBox="0 -680 2816 2816"><path d="M300 864 q0 378 98.5 695.5 q98.5 317.5 281.5 584.5 l208 0 q-96 -132 -174 -342 q-78 -210 -124 -455 q-46 -245 -46 -483 q0 -179 26.5 -363 q26.5 -184 73.5 -356.5 q47 -172.5 109.5 -317 q62.5 -144.5 134.5 -243.5 l-208 0 q-183 267 -281.5 584.5 q-98.5 317.5 -98.5 695.5 Z"></path></symbol><symbol id="parenright" viewBox="0 -680 2816 2816"><path d="M720 864 q0 -378 -98.5 -695.5 q-98.5 -317.5 -281.5 -584.5 l-208 0 q96 132 174 342 q78 210 124 455 q46 245 46 483 q0 178 -26.5 362.5 q-26.5 184.5 -73.5 357 q-47 172.5 -109.5 317 q-62.5 144.5 -134.5 243.5 l208 0 q183 -267 281.5 -584.5 q98.5 -317.5 98.5 -695.5 Z"></path></symbol><symbol id="bracketleft" viewBox="0 -680 2816 2816"><path d="M924 2144 l0 -196 l-368 0 l0 -2168 l368 0 l0 -196 l-592 0 l0 2560 l592 0 Z"></path></symbol><symbol id="bracketright" viewBox="0 -680 2816 2816"><path d="M96 -416 l0 196 l368 0 l0 2168 l-368 0 l0 196 l592 0 l0 -2560 l-592 0 Z"></path></symbol><symbol id="braceleft" viewBox="0 -680 2816 2816"><path d="M104 868 q162 0 263.5 -25 q101.5 -25 156.5 -71 q55 -46 75.5 -110 q20.5 -64 20.5 -142 l0 -400 q0 -117 27.5 -192.5 q27.5 -75.5 94 -111.5 q66.5 -36 182.5 -36 l0 -196 q-147 0 -247 32 q-100 32 -160 98 q-60 66 -86.5 167 q-26.5 101 -26.5 239 l0 320 q0 164 -66.5 234 q-66.5 70 -233.5 70 l0 124 ZM924 1948 q-116 0 -182.5 -36.5 q-66.5 -36.5 -94 -111.5 q-27.5 -75 -27.5 -192 l0 -400 q0 -78 -20.5 -142 q-20.5 -64 -75.5 -110 q-55 -46 -156.5 -71 q-101.5 -25 -263.5 -25 l0 124 q167 0 233.5 70 q66.5 70 66.5 234 l0 320 q0 138 26.5 239 q26.5 101 86.5 167 q60 66 160 98 q100 32 247 32 l0 -196 ZM340 984 l0 -240 l-236 0 l0 240 l236 0 Z"></path></symbol><symbol id="braceright" viewBox="0 -680 2816 2816"><path d="M916 860 q-162 0 -263.5 25 q-101.5 25 -156.5 71 q-55 46 -75.5 110 q-20.5 64 -20.5 142 l0 400 q0 117 -27.5 192 q-27.5 75 -94 111.5 q-66.5 36.5 -182.5 36.5 l0 196 q147 0 247 -32 q100 -32 160 -98 q60 -66 86.5 -167 q26.5 -101 26.5 -239 l0 -320 q0 -164 66.5 -234 q66.5 -70 233.5 -70 l0 -124 ZM96 -220 q116 0 182.5 36 q66.5 36 94 111.5 q27.5 75.5 27.5 192.5 l0 400 q0 78 20.5 142 q20.5 64 75.5 110 q55 46 156.5 71 q101.5 25 263.5 25 l0 -124 q-167 0 -233.5 -70 q-66.5 -70 -66.5 -234 l0 -320 q0 -138 -26.5 -239 q-26.5 -101 -86.5 -167 q-60 -66 -160 -98 q-100 -32 -247 -32 l0 196 ZM680 744 l0 240 l236 0 l0 -240 l-236 0 Z"></path></symbol><symbol id="at" viewBox="0 -680 2816 2816"><path d="M1396 1972 q102 0 214.5 -17 q112.5 -17 212 -43 q99.5 -26 161.5 -52 l-56 -184 q-36 12 -118 37 q-82 25 -189 46 q-107 21 -217 21 q-256 0 -452 -70.5 q-196 -70.5 -328.5 -206.5 q-132.5 -136 -200 -334 q-67.5 -198 -67.5 -453 q0 -251 67.5 -448.5 q67.5 -197.5 197 -336 q129.5 -138.5 315 -211 q185.5 -72.5 420.5 -72.5 q191 0 341.5 49.5 q150.5 49.5 262.5 136.5 q112 87 185.5 201 q73.5 114 110 244.5 q36.5 130.5 36.5 264.5 q0 228 -20.5 374 q-20.5 146 -75 216 q-54.5 70 -156.5 70 q-90 0 -137 -64 q-47 -64 -47 -148 l0 -904 l-212 0 l0 112 l-12 0 q-14 -44 -67 -80.5 q-53 -36.5 -135 -55 q-82 -18.5 -182 -8.5 q-112 12 -208.5 62.5 q-96.5 50.5 -168 134.5 q-71.5 84 -111.5 196 q-40 112 -40 247 q0 142 33.5 264.5 q33.5 122.5 100 215 q66.5 92.5 165.5 146 q99 53.5 229 58.5 q114 4 193.5 -27 q79.5 -31 129 -83 q49.5 -52 73.5 -110 l12 0 q12 86 77 137 q65 51 149 73 q84 22 154 22 q159 0 252.5 -76 q93.5 -76 138.5 -200.5 q45 -124.5 59 -273.5 q14 -149 14 -294 q0 -206 -71.5 -400 q-71.5 -194 -214 -349.5 q-142.5 -155.5 -354 -247 q-211.5 -91.5 -492.5 -91.5 q-289 0 -517.5 85 q-228.5 85 -388 246.5 q-159.5 161.5 -243 392.5 q-83.5 231 -83.5 524 q0 303 82 538 q82 235 242 397 q160 162 395 245.5 q235 83.5 541 83.5 ZM1280 1176 q-130 0 -207 -69.5 q-77 -69.5 -111 -182 q-34 -112.5 -34 -240.5 q0 -116 42.5 -214.5 q42.5 -98.5 123 -158 q80.5 -59.5 194.5 -59.5 q120 0 202 38 q82 38 124 132 q42 94 42 262 q0 166 -38 275 q-38 109 -121 163 q-83 54 -217 54 Z"></path></symbol><symbol id="numbersign" viewBox="0 -680 2816 2816"><path d="M1180 2048 l336 -2048 l-200 0 l-336 2048 l200 0 ZM1576 1480 l32 -200 l-1528 0 l-32 200 l1528 0 ZM460 2048 l336 -2048 l-200 0 l-336 2048 l200 0 ZM1696 768 l32 -200 l-1528 0 l-32 200 l1528 0 Z"></path></symbol><symbol id="currency" viewBox="0 -680 2816 2816"><path d="M1012 1724 q170 0 318.5 -65.5 q148.5 -65.5 261 -183.5 q112.5 -118 176.5 -275 q64 -157 64 -340 q0 -183 -64 -339.5 q-64 -156.5 -176.5 -273.5 q-112.5 -117 -261 -182 q-148.5 -65 -318.5 -65 q-169 0 -317 65 q-148 65 -260.5 182 q-112.5 117 -175.5 273.5 q-63 156.5 -63 339.5 q0 183 63 340 q63 157 175.5 275 q112.5 118 260.5 183.5 q148 65.5 317 65.5 ZM1012 1504 q-164 0 -299.5 -87.5 q-135.5 -87.5 -216 -234 q-80.5 -146.5 -80.5 -322.5 q0 -178 80.5 -324 q80.5 -146 216 -233 q135.5 -87 299.5 -87 q164 0 298.5 87 q134.5 87 214 233 q79.5 146 79.5 324 q0 132 -46 248.5 q-46 116.5 -127 205.5 q-81 89 -188.5 139.5 q-107.5 50.5 -230.5 50.5 ZM1872 140 l-164 -168 l-276 284 l160 168 l280 -284 ZM1872 1548 l-280 -280 l-160 164 l276 284 l164 -168 ZM604 1432 l-164 -164 l-276 280 l160 168 l280 -284 ZM604 256 l-280 -284 l-160 168 l276 284 l164 -168 Z"></path></symbol><symbol id="slash" viewBox="0 -680 2816 2816"><path d="M724 -308 l-660 2452 l216 0 l660 -2452 l-216 0 Z"></path></symbol><symbol id="bar" viewBox="0 -680 2816 2816"><path d="M360 -660 l0 3368 l200 0 l0 -3368 l-200 0 Z"></path></symbol><symbol id="brokenbar" viewBox="0 -680 2816 2816"><path d="M264 2048 l220 0 l0 -936 l-220 0 l0 936 ZM264 -384 l0 932 l220 0 l0 -932 l-220 0 Z"></path></symbol><symbol id="backslash" viewBox="0 -680 2816 2816"><path d="M940 2144 l-660 -2452 l-216 0 l660 2452 l216 0 Z"></path></symbol><symbol id="hyphen" viewBox="0 -680 2816 2816"><path d="M200 768 l0 220 l896 0 l0 -220 l-896 0 Z"></path></symbol><symbol id="endash" viewBox="0 -680 2816 2816"><path d="M0 768 l0 220 l1408 0 l0 -220 l-1408 0 Z"></path></symbol><symbol id="emdash" viewBox="0 -680 2816 2816"><path d="M0 768 l0 220 l2816 0 l0 -220 l-2816 0 Z"></path></symbol><symbol id="bullet" viewBox="0 -680 2816 2816"><path d="M792 1256 q122 0 221.5 -59.5 q99.5 -59.5 159 -159.5 q59.5 -100 59.5 -221 q0 -122 -59.5 -221.5 q-59.5 -99.5 -159 -159 q-99.5 -59.5 -221.5 -59.5 q-121 0 -221 59.5 q-100 59.5 -159.5 159 q-59.5 99.5 -59.5 221.5 q0 121 59.5 221 q59.5 100 159.5 159.5 q100 59.5 221 59.5 Z"></path></symbol><symbol id=".null" viewBox="0 -680 2816 2816"><path d="M200 914 l0 220 l896 0 l0 -220 l-896 0 Z"></path></symbol><symbol id="quoteleft" viewBox="0 -680 2816 2816"><path d="M360 2092 l0 -184 q0 -111 46.5 -208.5 q46.5 -97.5 109.5 -187.5 l-128 -104 q-80 64 -136.5 150.5 q-56.5 86.5 -86 179 q-29.5 92.5 -29.5 174.5 l0 180 l224 0 Z"></path></symbol><symbol id="quoteright" viewBox="0 -680 2816 2816"><path d="M200 1364 l0 184 q0 111 -46.5 208.5 q-46.5 97.5 -109.5 187.5 l128 104 q80 -64 136.5 -150.5 q56.5 -86.5 86 -179 q29.5 -92.5 29.5 -174.5 l0 -180 l-224 0 Z"></path></symbol><symbol id="quotesingle" viewBox="0 -680 2816 2816"><path d="M200 1344 l0 704 l220 0 l0 -704 l-220 0 Z"></path></symbol><symbol id="quotedblright" viewBox="0 -680 2816 2816"><path d="M200 1364 l0 184 q0 111 -46.5 208.5 q-46.5 97.5 -109.5 187.5 l128 104 q80 -64 136.5 -150.5 q56.5 -86.5 86 -179 q29.5 -92.5 29.5 -174.5 l0 -180 l-224 0 ZM712 1364 l0 184 q0 111 -46.5 208.5 q-46.5 97.5 -109.5 187.5 l128 104 q80 -64 136.5 -150.5 q56.5 -86.5 86 -179 q29.5 -92.5 29.5 -174.5 l0 -180 l-224 0 Z"></path></symbol><symbol id="uni-8242" viewBox="0 -680 2816 2816"><path d="M312 2048 l168 -736 l-268 0 l-72 736 l172 0 Z"></path></symbol><symbol id="comma" viewBox="0 -680 2816 2816"><path d="M312 -500 l-12 112 q-14 135 -35.5 264.5 q-21.5 129.5 -42.5 234.5 q-21 105 -34 169 l180 0 q24 -68 61 -183 q37 -115 71.5 -245 q34.5 -130 51.5 -244 l16 -108 l-256 0 Z"></path></symbol><symbol id="period" viewBox="0 -680 2816 2816"><path d="M388 344 q50 0 90.5 -24.5 q40.5 -24.5 65 -65.5 q24.5 -41 24.5 -90 q0 -74 -53 -127 q-53 -53 -127 -53 q-74 0 -127 53 q-53 53 -53 127 q0 74 53 127 q53 53 127 53 Z"></path></symbol><symbol id="colon" viewBox="0 -680 2816 2816"><path d="M388 1484 q50 0 90.5 -24.5 q40.5 -24.5 65 -65.5 q24.5 -41 24.5 -90 q0 -74 -53 -127 q-53 -53 -127 -53 q-74 0 -127 53 q-53 53 -53 127 q0 74 53 127 q53 53 127 53 ZM388 344 q50 0 90.5 -24.5 q40.5 -24.5 65 -65.5 q24.5 -41 24.5 -90 q0 -74 -53 -127 q-53 -53 -127 -53 q-74 0 -127 53 q-53 53 -53 127 q0 74 53 127 q53 53 127 53 Z"></path></symbol><symbol id=".null" viewBox="0 -680 2816 2816"><path d="M388 1658 q50 0 90.5 -24.5 q40.5 -24.5 65 -65.5 q24.5 -41 24.5 -90 q0 -74 -53 -127 q-53 -53 -127 -53 q-74 0 -127 53 q-53 53 -53 127 q0 74 53 127 q53 53 127 53 ZM388 622 q50 0 90.5 -24.5 q40.5 -24.5 65 -65.5 q24.5 -41 24.5 -90 q0 -74 -53 -127 q-53 -53 -127 -53 q-74 0 -127 53 q-53 53 -53 127 q0 74 53 127 q53 53 127 53 Z"></path></symbol><symbol id="semicolon" viewBox="0 -680 2816 2816"><path d="M312 704 l-12 112 q-14 135 -35.5 264.5 q-21.5 129.5 -42.5 234.5 q-21 105 -34 169 l180 0 q24 -68 61 -183 q37 -115 71.5 -245 q34.5 -130 51.5 -244 l16 -108 l-256 0 ZM424 -140 q50 0 90.5 -24.5 q40.5 -24.5 65 -65.5 q24.5 -41 24.5 -90 q0 -74 -53 -127 q-53 -53 -127 -53 q-74 0 -127 53 q-53 53 -53 127 q0 74 53 127 q53 53 127 53 Z"></path></symbol><symbol id="guilsinglleft" viewBox="0 -680 2816 2816"><path d="M416 828 l-228 0 l0 20 l404 600 l208 0 l-384 -620 ZM592 220 l-404 600 l0 20 l228 0 l384 -620 l-208 0 Z"></path></symbol><symbol id="guilsinglright" viewBox="0 -680 2816 2816"><path d="M396 1448 l404 -600 l0 -20 l-228 0 l-384 620 l208 0 ZM572 840 l228 0 l0 -20 l-404 -600 l-208 0 l384 620 Z"></path></symbol><symbol id="less" viewBox="0 -680 2816 2816"><path d="M1572 1536 l0 -256 l-988 -476 l8 16 l0 -40 l-8 16 l988 -476 l0 -256 l-1288 656 l0 160 l1288 656 Z"></path></symbol><symbol id="greater" viewBox="0 -680 2816 2816"><path d="M1572 720 l-1288 -656 l0 256 l988 476 l-8 -16 l0 40 l8 -16 l-988 476 l0 256 l1288 -656 l0 -160 Z"></path></symbol><symbol id="equal" viewBox="0 -680 2816 2816"><path d="M1544 612 l0 -216 l-1232 0 l0 216 l1232 0 ZM1544 1204 l0 -216 l-1232 0 l0 216 l1232 0 Z"></path></symbol><symbol id="plus" viewBox="0 -680 2816 2816"><path d="M1040 1460 l0 -1320 l-224 0 l0 1320 l224 0 ZM1588 912 l0 -224 l-1320 0 l0 224 l1320 0 Z"></path></symbol><symbol id="minus" viewBox="0 -680 2816 2816"><path d="M288 688 l0 224 l1280 0 l0 -224 l-1280 0 Z"></path></symbol><symbol id="multiply" viewBox="0 -680 2816 2816"><path d="M1568 1288 l-1128 -1128 l-152 152 l1128 1128 l152 -152 ZM1568 312 l-152 -152 l-1128 1128 l152 152 l1128 -1128 Z"></path></symbol><symbol id="divide" viewBox="0 -680 2816 2816"><path d="M288 688 l0 224 l1280 0 l0 -224 l-1280 0 ZM928 1496 q72 0 124 -52.5 q52 -52.5 52 -127.5 q0 -72 -52 -124 q-52 -52 -124 -52 q-75 0 -127.5 52 q-52.5 52 -52.5 124 q0 75 52.5 127.5 q52.5 52.5 127.5 52.5 ZM928 460 q72 0 124 -52.5 q52 -52.5 52 -127.5 q0 -72 -52 -124 q-52 -52 -124 -52 q-75 0 -127.5 52 q-52.5 52 -52.5 124 q0 50 24 91 q24 41 65 65 q41 24 91 24 Z"></path></symbol><symbol id="plusminus" viewBox="0 -680 2816 2816"><path d="M1572 1536 l0 -224 l-1288 0 l0 224 l1288 0 ZM1572 728 l0 -224 l-1288 0 l0 224 l1288 0 ZM1040 1136 l0 -1040 l-224 0 l0 1040 l224 0 Z"></path></symbol><symbol id="asciitilde" viewBox="0 -680 2816 2816"><path d="M448 1012 q-2 -131 50.5 -187.5 q52.5 -56.5 133.5 -56.5 q53 0 98 26 q45 26 118 90 q110 95 194 139.5 q84 44.5 186 44.5 q102 0 194 -46 q92 -46 148.5 -147 q56.5 -101 53.5 -267 l-216 0 q2 119 -48 181.5 q-50 62.5 -136 62.5 q-53 0 -97.5 -26 q-44.5 -26 -118.5 -90 q-109 -95 -193.5 -139.5 q-84.5 -44.5 -186.5 -44.5 q-102 0 -193.5 46 q-91.5 46 -148.5 147 q-57 101 -54 267 l216 0 Z"></path></symbol><symbol id=".null" viewBox="0 -680 2816 2816"><path d="M1572 1728 l0 -256 l-988 -476 l8 16 l0 -40 l-8 16 l988 -476 l0 -256 l-1288 656 l0 160 l1288 656 Z"></path></symbol><symbol id=".null" viewBox="0 -680 2816 2816"><path d="M1572 912 l-1288 -656 l0 256 l988 476 l-8 -16 l0 40 l8 -16 l-988 476 l0 256 l1288 -656 l0 -160 Z"></path></symbol><symbol id=".null" viewBox="0 -680 2816 2816"><path d="M1544 836 l0 -216 l-1232 0 l0 216 l1232 0 ZM1544 1428 l0 -216 l-1232 0 l0 216 l1232 0 Z"></path></symbol><symbol id=".null" viewBox="0 -680 2816 2816"><path d="M1040 1680 l0 -1320 l-224 0 l0 1320 l224 0 ZM1588 1132 l0 -224 l-1320 0 l0 224 l1320 0 Z"></path></symbol><symbol id=".null" viewBox="0 -680 2816 2816"><path d="M288 912 l0 224 l1280 0 l0 -224 l-1280 0 Z"></path></symbol><symbol id=".null" viewBox="0 -680 2816 2816"><path d="M1568 1496 l-1128 -1128 l-152 152 l1128 1128 l152 -152 ZM1568 520 l-152 -152 l-1128 1128 l152 152 l1128 -1128 Z"></path></symbol><symbol id=".null" viewBox="0 -680 2816 2816"><path d="M288 912 l0 224 l1280 0 l0 -224 l-1280 0 ZM928 1720 q72 0 124 -52.5 q52 -52.5 52 -127.5 q0 -72 -52 -124 q-52 -52 -124 -52 q-75 0 -127.5 52 q-52.5 52 -52.5 124 q0 75 52.5 127.5 q52.5 52.5 127.5 52.5 ZM928 684 q72 0 124 -52.5 q52 -52.5 52 -127.5 q0 -72 -52 -124 q-52 -52 -124 -52 q-75 0 -127.5 52 q-52.5 52 -52.5 124 q0 50 24 91 q24 41 65 65 q41 24 91 24 Z"></path></symbol><symbol id="logicalnot" viewBox="0 -680 2816 2816"><path d="M188 516 l0 236 l1148 0 l0 -236 l-1148 0 ZM1060 624 l0 484 l276 0 l0 -484 l-276 0 Z"></path></symbol><symbol id="underscore" viewBox="0 -680 2816 2816"><path d="M-4 -220 l0 220 l1280 0 l0 -220 l-1280 0 Z"></path></symbol><symbol id="asciicircum" viewBox="0 -680 2816 2816"><path d="M624 1332 l72 0 l0 -100 l-72 0 l0 100 ZM352 1984 l320 -692 l-24 0 l324 692 l236 0 l-412 -864 l-272 0 l-412 864 l240 0 Z"></path></symbol><symbol id="asterisk" viewBox="0 -680 2816 2816"><path d="M800 2048 l-16 -440 l372 236 l96 -168 l-392 -204 l392 -204 l-96 -168 l-372 236 l16 -440 l-192 0 l16 440 l-372 -236 l-96 168 l392 204 l-392 204 l96 168 l372 -236 l-16 440 l192 0 Z"></path></symbol><symbol id="registered" viewBox="0 -680 2816 2816"><path d="M826 1636 l0 -618 l154 0 q29 0 67.5 24 q38.5 24 38.5 92 q0 66 -38.5 99 q-38.5 33 -71.5 33 l-220 0 l0 120 l270 0 q49 0 104.5 -29 q55.5 -29 94.5 -85.5 q39 -56.5 39 -137.5 q0 -80 -37.5 -132.5 q-37.5 -52.5 -90.5 -78 q-53 -25.5 -98 -25.5 l-374 0 l0 738 l162 0 ZM936 1288 l180 348 l178 0 l-184 -348 l-174 0 ZM944 2076 q166 0 311 -62 q145 -62 255 -172 q110 -110 172 -255 q62 -145 62 -311 q0 -166 -62 -311 q-62 -145 -172 -255 q-110 -110 -255 -172 q-145 -62 -311 -62 q-166 0 -311 62 q-145 62 -255 172 q-110 110 -172 255 q-62 145 -62 311 q0 166 62 311 q62 145 172 255 q110 110 255 172 q145 62 311 62 ZM944 1884 q-168 0 -306 -82 q-138 -82 -220 -220 q-82 -138 -82 -306 q0 -168 82 -306 q82 -138 220 -220 q138 -82 306 -82 q168 0 306 82 q138 82 220 220 q82 138 82 306 q0 168 -82 306 q-82 138 -220 220 q-138 82 -306 82 Z"></path></symbol><symbol id="copyright" viewBox="0 -680 2816 2816"><path d="M704 1024 q0 164 80 299 q80 135 215 215 q135 80 299 80 q142 0 257.5 -61 q115.5 -61 189.5 -166.5 q74 -105.5 93 -238.5 l-242 0 q-21 103 -101.5 168.5 q-80.5 65.5 -196.5 65.5 q-100 0 -182 -49 q-82 -49 -131 -131 q-49 -82 -49 -182 q0 -100 49 -182 q49 -82 131 -131 q82 -49 182 -49 q116 0 207 65.5 q91 65.5 111 168.5 l242 0 q-19 -133 -98 -238.5 q-79 -105.5 -199.5 -166.5 q-120.5 -61 -262.5 -61 q-164 0 -299 80 q-135 80 -215 215 q-80 135 -80 299 ZM1288 2080 q219 0 411 -82 q192 -82 337 -227.5 q145 -145.5 227 -336.5 q82 -191 81 -410 q-1 -219 -83 -410 q-82 -191 -226.5 -336.5 q-144.5 -145.5 -336 -227.5 q-191.5 -82 -410.5 -82 q-218 0 -409 82 q-191 82 -336 227.5 q-145 145.5 -227.5 336.5 q-82.5 191 -83.5 410 q-1 219 81.5 410 q82.5 191 228 336.5 q145.5 145.5 337 227.5 q191.5 82 409.5 82 ZM1288 1848 q-171 0 -320.5 -64.5 q-149.5 -64.5 -263 -177.5 q-113.5 -113 -177.5 -262.5 q-64 -149.5 -63 -318.5 q1 -171 65.5 -320.5 q64.5 -149.5 177.5 -263 q113 -113.5 262 -177.5 q149 -64 319 -64 q171 0 320 64 q149 64 262 177 q113 113 177 263 q64 150 65 321 q1 170 -63 319.5 q-64 149.5 -177 262.5 q-113 113 -263 177 q-150 64 -321 64 Z"></path></symbol><symbol id="trademark" viewBox="0 -680 2816 2816"><path d="M1234 2048 l326 -736 l-132 0 l-228 540 l-228 -540 l-132 0 l326 736 l68 0 ZM944 2048 l0 -736 l-128 0 l0 736 l128 0 ZM1584 2048 l0 -736 l-128 0 l0 736 l128 0 ZM464 2048 l0 -672 l-128 0 l0 672 l128 0 ZM688 1424 l0 -112 l-576 0 l0 112 l576 0 Z"></path></symbol><symbol id="degree" viewBox="0 -680 2816 2816"><path d="M640 2064 q127 0 231.5 -62 q104.5 -62 166.5 -166.5 q62 -104.5 62 -231.5 q0 -127 -62 -231.5 q-62 -104.5 -166.5 -166.5 q-104.5 -62 -231.5 -62 q-127 0 -231.5 62 q-104.5 62 -166.5 166.5 q-62 104.5 -62 231.5 q0 127 62 231.5 q62 104.5 166.5 166.5 q104.5 62 231.5 62 ZM640 1864 q-72 0 -131 -35 q-59 -35 -94 -94 q-35 -59 -35 -131 q0 -72 35 -131 q35 -59 94 -94 q59 -35 131 -35 q72 0 131 35 q59 35 94 94 q35 59 35 131 q0 72 -35 131 q-35 59 -94 94 q-59 35 -131 35 Z"></path></symbol><symbol id="ordfeminine" viewBox="0 -680 2816 2816"><path d="M800 1800 q0 54 8.5 109 q8.5 55 23.5 103 l244 0 q-21 -60 -28.5 -121 q-7.5 -61 -7.5 -127 l0 -432 q0 -189 -110 -284.5 q-110 -95.5 -290 -95.5 q-195 0 -311.5 91 q-116.5 91 -116.5 229 l236 20 q0 -66 51 -101 q51 -35 141 -35 q81 0 120.5 44.5 q39.5 44.5 39.5 131.5 l0 468 ZM660 1400 q-237 0 -354.5 83.5 q-117.5 83.5 -117.5 236.5 q0 141 89.5 226.5 q89.5 85.5 254.5 85.5 q141 0 221.5 -65 q80.5 -65 110.5 -131 l-24 -160 q0 34 -38.5 70 q-38.5 36 -96 61 q-57.5 25 -113.5 25 q-84 0 -122 -31.5 q-38 -31.5 -38 -88.5 q0 -60 54 -106 q54 -46 174 -46 l200 0 l0 -160 l-200 0 Z"></path></symbol><symbol id="ordmasculine" viewBox="0 -680 2816 2816"><path d="M156 1548 q0 213 129 348.5 q129 135.5 351 135.5 q146 0 252 -62 q106 -62 163 -171 q57 -109 57 -251 l0 -108 q0 -213 -127 -350.5 q-127 -137.5 -349 -137.5 q-146 0 -253 63 q-107 63 -165 173 q-58 110 -58 252 l0 108 ZM396 1440 q0 -120 59.5 -202 q59.5 -82 176.5 -82 q120 0 178 82 q58 82 58 202 l0 108 q0 123 -57.5 203.5 q-57.5 80.5 -174.5 80.5 q-120 0 -180 -80.5 q-60 -80.5 -60 -203.5 l0 -108 Z"></path></symbol><symbol id=".null" viewBox="0 -680 2816 2816"><path d="M348 2492 l0 -1088 l-212 0 l0 1088 l212 0 ZM244 1264 q48 0 84 -34.5 q36 -34.5 36 -85.5 q0 -48 -36 -84 q-36 -36 -84 -36 q-51 0 -87.5 36 q-36.5 36 -36.5 84 q0 48 36.5 84 q36.5 36 87.5 36 Z"></path></symbol><symbol id=".null" viewBox="0 -680 2816 2816"><path d="M344 1444 q0 -111 64.5 -175.5 q64.5 -64.5 163.5 -64.5 q99 0 159.5 62 q60.5 62 60.5 170 l0 688 l212 0 l0 -724 q0 -174 -98 -275 q-98 -101 -254 -101 q-108 0 -190 50.5 q-82 50.5 -118 137.5 l-8 0 l0 -176 l-204 0 l0 1088 l212 0 l0 -680 Z"></path></symbol><symbol id="paragraph" viewBox="0 -680 2816 2816"><path d="M1440 0 l-612 0 q-218 0 -369 84.5 q-151 84.5 -229 230 q-78 145.5 -78 329.5 q0 186 78 331.5 q78 145.5 229 229 q151 83.5 369 83.5 l116 0 l0 -1068 l496 0 l0 -220 ZM1440 2048 l0 -2048 l-248 0 l0 2048 l248 0 Z"></path></symbol><symbol id="section" viewBox="0 -680 2816 2816"><path d="M1272 96 q0 -150 -61 -265.5 q-61 -115.5 -173 -181 q-112 -65.5 -266 -65.5 q-142 0 -252 55.5 q-110 55.5 -173 152 q-63 96.5 -63 220.5 q0 96 38.5 174.5 q38.5 78.5 101.5 141.5 l0 8 q-82 24 -145 83 q-63 59 -99 134 q-36 75 -36 147 q0 93 30.5 165.5 q30.5 72.5 76.5 127 q46 54.5 96 91.5 q50 37 89 60 l388 224 q48 28 98 63 q50 35 84 86 q34 51 34 127 q0 111 -84.5 165.5 q-84.5 54.5 -195.5 54.5 q-135 0 -223.5 -78.5 q-88.5 -78.5 -88.5 -225.5 l-232 0 q0 160 70 275.5 q70 115.5 193 178 q123 62.5 281 62.5 q132 0 248 -46.5 q116 -46.5 188 -142 q72 -95.5 72 -243.5 q0 -96 -34 -178.5 q-34 -82.5 -106 -145.5 l0 -4 q76 -24 139.5 -81 q63.5 -57 102 -131 q38.5 -74 38.5 -148 q0 -93 -30.5 -165 q-30.5 -72 -76.5 -125.5 q-46 -53.5 -96 -90.5 q-50 -37 -89 -59 l-388 -228 q-48 -28 -98 -69.5 q-50 -41.5 -84 -94 q-34 -52.5 -34 -112.5 q0 -50 27.5 -100 q27.5 -50 85 -83 q57.5 -33 147.5 -33 q141 0 206.5 85.5 q65.5 85.5 65.5 214.5 l228 0 ZM1188 956 q0 82 -47.5 141 q-47.5 59 -109 83 q-61.5 24 -103.5 0 l-372 -216 q-75 -45 -133.5 -106.5 q-58.5 -61.5 -58.5 -157.5 q0 -84 42.5 -146 q42.5 -62 100 -87 q57.5 -25 101.5 1 l392 228 q48 28 91 66.5 q43 38.5 70 87 q27 48.5 27 106.5 Z"></path></symbol><symbol id="onesuperior" viewBox="0 -680 2816 2816"><path d="M646 2252 l0 -1228 l-208 0 l-326 216 l0 212 l316 -210 l10 0 l0 1010 l208 0 Z"></path></symbol><symbol id="twosuperior" viewBox="0 -680 2816 2816"><path d="M1064 2268 l0 -176 l-612 0 l0 -8 l260 -228 q110 -96 180 -171 q70 -75 103 -145 q33 -70 33 -152 q0 -104 -56 -186.5 q-56 -82.5 -156 -130 q-100 -47.5 -232 -47.5 q-198 0 -325 104.5 q-127 104.5 -127 275.5 l208 0 q0 -93 66 -150.5 q66 -57.5 174 -57.5 q102 0 171 53 q69 53 69 143 q0 52 -24 98 q-24 46 -71 95 q-47 49 -117 111 l-468 416 l0 156 l924 0 Z"></path></symbol><symbol id="threesuperior" viewBox="0 -680 2816 2816"><path d="M604 2268 q144 0 255 -46.5 q111 -46.5 174 -127 q63 -80.5 63 -182.5 q0 -111 -78.5 -191 q-78.5 -80 -225.5 -101 l0 -8 q108 -18 182 -87 q74 -69 74 -177 q0 -98 -56 -175 q-56 -77 -155 -121 q-99 -44 -229 -44 q-128 0 -231.5 45 q-103.5 45 -165 125 q-61.5 80 -63.5 186 l208 0 q3 -84 76.5 -134 q73.5 -50 175.5 -50 q102 0 165 51 q63 51 63 129 q0 84 -74.5 134 q-74.5 50 -185.5 50 l-100 0 l0 160 l100 0 q135 0 215.5 54 q80.5 54 80.5 138 q0 84 -75.5 138 q-75.5 54 -192.5 54 q-111 0 -186 -49.5 q-75 -49.5 -78 -130.5 l-220 0 q2 106 65.5 187 q63.5 81 172 127 q108.5 46 246.5 46 Z"></path></symbol><symbol id="uni-8308" viewBox="0 -680 2816 2816"><path d="M1128 2020 l0 -172 l-800 0 l0 -8 l416 -576 l92 0 l0 -240 l-148 0 l-584 828 l0 168 l1024 0 ZM960 2252 l0 -1228 l-208 0 l0 872 l0 72 l0 284 l208 0 Z"></path></symbol><symbol id=".null" viewBox="0 -680 2816 2816"><path d="M564 1104 q219 0 345.5 -150.5 q126.5 -150.5 126.5 -417.5 q0 -264 -126.5 -412 q-126.5 -148 -345.5 -148 q-219 0 -345.5 148 q-126.5 148 -126.5 412 q0 267 126.5 417.5 q126.5 150.5 345.5 150.5 ZM564 932 q-117 0 -186.5 -100.5 q-69.5 -100.5 -69.5 -295.5 q0 -189 69.5 -288.5 q69.5 -99.5 186.5 -99.5 q117 0 186.5 99.5 q69.5 99.5 69.5 288.5 q0 195 -69.5 295.5 q-69.5 100.5 -186.5 100.5 Z"></path></symbol><symbol id=".null" viewBox="0 -680 2816 2816"><path d="M582 1088 l0 -1088 l-208 0 l-278 184 l0 212 l268 -178 l10 0 l0 870 l208 0 Z"></path></symbol><symbol id=".null" viewBox="0 -680 2816 2816"><path d="M980 1104 l0 -168 l-548 0 l0 -8 l220 -180 q104 -86 167.5 -153 q63.5 -67 92 -129 q28.5 -62 28.5 -134 q0 -141 -111 -236.5 q-111 -95.5 -297 -95.5 q-186 0 -301 95.5 q-115 95.5 -115 248.5 l200 0 q0 -81 61 -130.5 q61 -49.5 151 -49.5 q90 0 151 47 q61 47 61 125 q0 63 -44 119 q-44 56 -140 137 l-428 360 l0 152 l852 0 Z"></path></symbol><symbol id=".null" viewBox="0 -680 2816 2816"><path d="M548 1104 q132 0 233 -41.5 q101 -41.5 158 -114 q57 -72.5 57 -164.5 q0 -99 -72.5 -168.5 q-72.5 -69.5 -207.5 -87.5 l0 -8 q108 -15 174 -77 q66 -62 66 -155 q0 -88 -52 -156.5 q-52 -68.5 -144 -108 q-92 -39.5 -212 -39.5 q-120 0 -214 42 q-94 42 -149 115 q-55 73 -57 167 l204 0 q0 -69 63 -114.5 q63 -45.5 153 -45.5 q90 0 147 45 q57 45 57 111 q0 69 -66.5 112.5 q-66.5 43.5 -165.5 43.5 l-88 0 l0 148 l88 0 q114 0 185 44 q71 44 71 116 q0 69 -64.5 116.5 q-64.5 47.5 -163.5 47.5 q-99 0 -165.5 -45.5 q-66.5 -45.5 -66.5 -114.5 l-212 0 q0 96 57.5 171 q57.5 75 158 118 q100.5 43 228.5 43 Z"></path></symbol><symbol id=".null" viewBox="0 -680 2816 2816"><path d="M1028 892 l0 -168 l-720 0 l0 -4 l364 -492 l88 0 l0 -228 l-144 0 l-524 728 l0 164 l936 0 ZM876 1088 l0 -1088 l-196 0 l0 768 l-4 72 l0 248 l200 0 Z"></path></symbol><symbol id=".null" viewBox="0 -680 2816 2816"><path d="M536 1088 q130 0 229 -49 q99 -49 155 -135 q56 -86 56 -196 q0 -104 -51.5 -182.5 q-51.5 -78.5 -138 -122 q-86.5 -43.5 -190.5 -43.5 q-81 0 -148.5 30 q-67.5 30 -103.5 78 l-4 0 l40 -316 l532 0 l0 -168 l-708 0 l-60 572 l196 40 q30 -42 82.5 -67 q52.5 -25 109.5 -25 q102 0 171 58 q69 58 69 154 q0 93 -67 152.5 q-67 59.5 -169 59.5 q-90 0 -151.5 -47 q-61.5 -47 -64.5 -125 l-204 0 q2 98 56 173 q54 75 148 117 q94 42 216 42 Z"></path></symbol><symbol id=".null" viewBox="0 -680 2816 2816"><path d="M556 1108 q128 0 225.5 -49 q97.5 -49 152 -133 q54.5 -84 54.5 -190 q0 -98 -48 -176 q-48 -78 -131 -123 q-83 -45 -189 -45 q-102 0 -190.5 47 q-88.5 47 -121.5 125 l-8 0 q0 -186 66 -293 q66 -107 198 -107 q81 0 134.5 39.5 q53.5 39.5 65.5 108.5 l208 0 q-15 -138 -126 -233 q-111 -95 -282 -95 q-154 0 -259 78 q-105 78 -159 211 q-54 133 -54 299 q0 141 37 242.5 q37 101.5 102 166.5 q65 65 148.5 96 q83.5 31 176.5 31 ZM552 948 q-96 0 -157.5 -57 q-61.5 -57 -70.5 -147 q-6 -56 24 -103.5 q30 -47.5 84 -76 q54 -28.5 120 -28.5 q96 0 164 58.5 q68 58.5 68 145.5 q0 87 -66.5 147.5 q-66.5 60.5 -165.5 60.5 Z"></path></symbol><symbol id=".null" viewBox="0 -680 2816 2816"><path d="M376 1088 l524 -920 l0 -168 l-828 0 l0 168 l608 0 l0 8 l-524 912 l220 0 Z"></path></symbol><symbol id=".null" viewBox="0 -680 2816 2816"><path d="M552 1104 q130 0 233 -41 q103 -41 163 -111 q60 -70 60 -156 q0 -93 -74.5 -170 q-74.5 -77 -197.5 -98 l0 -8 q108 -21 168 -92.5 q60 -71.5 60 -155.5 q0 -82 -54.5 -147 q-54.5 -65 -148 -103 q-93.5 -38 -209.5 -38 q-118 0 -212 38 q-94 38 -149 103 q-55 65 -55 147 q0 84 60 155.5 q60 71.5 168 92.5 l0 8 q-117 18 -194.5 95 q-77.5 77 -77.5 173 q0 86 60 156 q60 70 164 111 q104 41 236 41 ZM552 956 q-105 0 -172.5 -52 q-67.5 -52 -67.5 -124 q0 -50 32.5 -90 q32.5 -40 87 -63 q54.5 -23 120.5 -23 q99 0 167.5 52 q68.5 52 68.5 124 q0 48 -30.5 88 q-30.5 40 -84 64 q-53.5 24 -121.5 24 ZM552 460 q-90 0 -149 -49 q-59 -49 -59 -115 q0 -66 59 -113 q59 -47 149 -47 q87 0 147.5 47 q60.5 47 60.5 113 q0 66 -60.5 115 q-60.5 49 -147.5 49 Z"></path></symbol><symbol id=".null" viewBox="0 -680 2816 2816"><path d="M528 -16 q-128 0 -225.5 48 q-97.5 48 -152 132 q-54.5 84 -54.5 192 q0 98 48 176 q48 78 131 123 q83 45 189 45 q105 0 190.5 -47 q85.5 -47 121.5 -125 l8 0 q0 186 -66 293 q-66 107 -198 107 q-81 0 -134.5 -39.5 q-53.5 -39.5 -65.5 -108.5 l-208 0 q15 138 124.5 233 q109.5 95 283.5 95 q154 0 259 -78.5 q105 -78.5 159 -212 q54 -133.5 54 -297.5 q0 -141 -37 -242.5 q-37 -101.5 -102 -166.5 q-65 -65 -148.5 -96 q-83.5 -31 -176.5 -31 ZM528 144 q96 0 159.5 57 q63.5 57 72.5 147 q6 48 -21.5 96 q-27.5 48 -81 80 q-53.5 32 -125.5 32 q-99 0 -165.5 -60 q-66.5 -60 -66.5 -144 q0 -58 30.5 -105 q30.5 -47 82 -75 q51.5 -28 115.5 -28 Z"></path></symbol><symbol id="uni-8260" viewBox="0 -680 2816 2816"><path d="M-204 2048 l1408 -2048 l-228 0 l-1408 2048 l228 0 Z"></path></symbol><symbol id=".null" viewBox="0 -680 2816 2816"><path d="M582 2112 l0 -1088 l-208 0 l-278 184 l0 212 l268 -178 l10 0 l0 870 l208 0 Z"></path></symbol><symbol id=".null" viewBox="0 -680 2816 2816"><path d="M548 2128 q132 0 233 -41.5 q101 -41.5 158 -114 q57 -72.5 57 -164.5 q0 -99 -72.5 -168.5 q-72.5 -69.5 -207.5 -87.5 l0 -8 q108 -15 174 -77 q66 -62 66 -155 q0 -88 -52 -156.5 q-52 -68.5 -144 -108 q-92 -39.5 -212 -39.5 q-120 0 -214 42 q-94 42 -149 115 q-55 73 -57 167 l204 0 q0 -69 63 -114.5 q63 -45.5 153 -45.5 q90 0 147 45 q57 45 57 111 q0 69 -66.5 112.5 q-66.5 43.5 -165.5 43.5 l-88 0 l0 148 l88 0 q114 0 185 44 q71 44 71 116 q0 69 -64.5 116.5 q-64.5 47.5 -163.5 47.5 q-99 0 -165.5 -45.5 q-66.5 -45.5 -66.5 -114.5 l-212 0 q0 96 57.5 171 q57.5 75 158 118 q100.5 43 228.5 43 Z"></path></symbol><symbol id=".null" viewBox="0 -680 2816 2816"><path d="M536 2112 q130 0 229 -49 q99 -49 155 -135 q56 -86 56 -196 q0 -104 -51.5 -182.5 q-51.5 -78.5 -138 -122 q-86.5 -43.5 -190.5 -43.5 q-81 0 -148.5 30 q-67.5 30 -103.5 78 l-4 0 l40 -316 l532 0 l0 -168 l-708 0 l-60 572 l196 40 q30 -42 82.5 -67 q52.5 -25 109.5 -25 q102 0 171 58 q69 58 69 154 q0 93 -67 152.5 q-67 59.5 -169 59.5 q-90 0 -151.5 -47 q-61.5 -47 -64.5 -125 l-204 0 q2 98 56 173 q54 75 148 117 q94 42 216 42 Z"></path></symbol><symbol id=".null" viewBox="0 -680 2816 2816"><path d="M376 2112 l524 -920 l0 -168 l-828 0 l0 168 l608 0 l0 8 l-524 912 l220 0 Z"></path></symbol><symbol id=".null" viewBox="0 -680 2816 2816"><path d="M652 1932 l0 -732 l-176 0 l0 732 l176 0 ZM968 1652 l0 -172 l-808 0 l0 172 l808 0 Z"></path></symbol><symbol id=".null" viewBox="0 -680 2816 2816"><path d="M160 1480 l0 172 l808 0 l0 -172 l-808 0 Z"></path></symbol><symbol id=".null" viewBox="0 -680 2816 2816"><path d="M940 1476 l0 -172 l-756 0 l0 172 l756 0 ZM940 1824 l0 -172 l-756 0 l0 172 l756 0 Z"></path></symbol><symbol id=".null" viewBox="0 -680 2816 2816"><path d="M168 1560 q0 180 55 351 q55 171 169 321 l204 0 q-66 -90 -113.5 -202 q-47.5 -112 -73 -233 q-25.5 -121 -25.5 -237 q0 -128 28 -251 q28 -123 76 -231 q48 -108 108 -190 l-204 0 q-114 150 -169 319.5 q-55 169.5 -55 352.5 Z"></path></symbol><symbol id=".null" viewBox="0 -680 2816 2816"><path d="M492 1560 q0 -186 -55 -352.5 q-55 -166.5 -169 -319.5 l-204 0 q64 88 111.5 198.5 q47.5 110.5 74 232 q26.5 121.5 26.5 241.5 q0 122 -27 245 q-27 123 -75 233 q-48 110 -110 194 l204 0 q114 -150 169 -321 q55 -171 55 -351 Z"></path></symbol><symbol id="percent" viewBox="0 -680 2816 2816"><path d="M1256 1664 q0 112 46 205.5 q46 93.5 135 150 q89 56.5 219 56.5 q128 0 216.5 -56.5 q88.5 -56.5 134 -150 q45.5 -93.5 45.5 -205.5 l0 -108 q0 -112 -45 -205.5 q-45 -93.5 -133 -150 q-88 -56.5 -218 -56.5 q-128 0 -217.5 56.5 q-89.5 56.5 -136 150 q-46.5 93.5 -46.5 205.5 l0 108 ZM1460 1556 q0 -93 45.5 -166.5 q45.5 -73.5 150.5 -73.5 q108 0 150 73.5 q42 73.5 42 166.5 l0 108 q0 93 -43.5 166.5 q-43.5 73.5 -148.5 73.5 q-108 0 -152 -73.5 q-44 -73.5 -44 -166.5 l0 -108 ZM236 492 q0 112 46 205.5 q46 93.5 135 150 q89 56.5 219 56.5 q128 0 216.5 -56.5 q88.5 -56.5 134 -150 q45.5 -93.5 45.5 -205.5 l0 -108 q0 -112 -45 -205.5 q-45 -93.5 -133 -150 q-88 -56.5 -218 -56.5 q-128 0 -217.5 56.5 q-89.5 56.5 -136 150 q-46.5 93.5 -46.5 205.5 l0 108 ZM440 384 q0 -93 45.5 -166.5 q45.5 -73.5 150.5 -73.5 q108 0 150 73.5 q42 73.5 42 166.5 l0 108 q0 93 -43.5 166.5 q-43.5 73.5 -148.5 73.5 q-108 0 -152 -73.5 q-44 -73.5 -44 -166.5 l0 -108 ZM540 2048 l1408 -2048 l-228 0 l-1408 2048 l228 0 Z"></path></symbol><symbol id="acute" viewBox="0 -680 2816 2816"><path d="M768 2208 l312 -464 l-276 0 l-244 464 l208 0 Z"></path></symbol><symbol id="grave" viewBox="0 -680 2816 2816"><path d="M960 2208 l-244 -464 l-276 0 l312 464 l208 0 Z"></path></symbol><symbol id="dieresis" viewBox="0 -680 2816 2816"><path d="M544 2112 q69 0 114.5 -48.5 q45.5 -48.5 45.5 -111.5 q0 -69 -45.5 -114.5 q-45.5 -45.5 -114.5 -45.5 q-63 0 -111.5 45.5 q-48.5 45.5 -48.5 114.5 q0 63 48.5 111.5 q48.5 48.5 111.5 48.5 ZM1120 2112 q69 0 114.5 -48.5 q45.5 -48.5 45.5 -111.5 q0 -69 -45.5 -114.5 q-45.5 -45.5 -114.5 -45.5 q-63 0 -111.5 45.5 q-48.5 45.5 -48.5 114.5 q0 63 48.5 111.5 q48.5 48.5 111.5 48.5 Z"></path></symbol><symbol id=".null" viewBox="0 -680 2816 2816"><path d="M544 2600 q69 0 114.5 -48.5 q45.5 -48.5 45.5 -111.5 q0 -69 -45.5 -114.5 q-45.5 -45.5 -114.5 -45.5 q-63 0 -111.5 45.5 q-48.5 45.5 -48.5 114.5 q0 63 48.5 111.5 q48.5 48.5 111.5 48.5 ZM1120 2600 q69 0 114.5 -48.5 q45.5 -48.5 45.5 -111.5 q0 -69 -45.5 -114.5 q-45.5 -45.5 -114.5 -45.5 q-63 0 -111.5 45.5 q-48.5 45.5 -48.5 114.5 q0 63 48.5 111.5 q48.5 48.5 111.5 48.5 Z"></path></symbol><symbol id="circumflex" viewBox="0 -680 2816 2816"><path d="M1072 2152 l0 -16 l-324 -416 l-216 0 l-324 416 l0 16 l224 0 l208 -280 l208 280 l224 0 Z"></path></symbol><symbol id="uni-732" viewBox="0 -680 2816 2816"><path d="M396 2100 q0 -63 37.5 -107.5 q37.5 -44.5 94.5 -44.5 q57 0 96 19.5 q39 19.5 74 44.5 q35 25 80 44.5 q45 19.5 114 19.5 q129 0 216.5 -92 q87.5 -92 87.5 -248 l-180 -16 q0 63 -39.5 107.5 q-39.5 44.5 -96.5 44.5 q-54 0 -96.5 -19.5 q-42.5 -19.5 -82.5 -44.5 q-40 -25 -84 -44.5 q-44 -19.5 -101 -19.5 q-129 0 -216.5 97.5 q-87.5 97.5 -87.5 250.5 l184 8 Z"></path></symbol><symbol id=".null" viewBox="0 -680 2816 2816"><path d="M324 2632 q0 -63 37.5 -107.5 q37.5 -44.5 94.5 -44.5 q57 0 96 19.5 q39 19.5 74 44.5 q35 25 80 44.5 q45 19.5 114 19.5 q129 0 216.5 -92 q87.5 -92 87.5 -248 l-180 -16 q0 63 -39.5 107.5 q-39.5 44.5 -96.5 44.5 q-54 0 -96.5 -19.5 q-42.5 -19.5 -82.5 -44.5 q-40 -25 -84 -44.5 q-44 -19.5 -101 -19.5 q-129 0 -216.5 97.5 q-87.5 97.5 -87.5 250.5 l184 8 Z"></path></symbol><symbol id="macron" viewBox="0 -680 2816 2816"><path d="M164 1848 l0 200 l936 0 l0 -200 l-936 0 Z"></path></symbol><symbol id=".null" viewBox="0 -680 2816 2816"><path d="M336 2112 q69 0 118.5 -47 q49.5 -47 49.5 -113 q0 -66 -49.5 -113 q-49.5 -47 -118.5 -47 q-69 0 -118.5 47 q-49.5 47 -49.5 113 q0 66 49.5 113 q49.5 47 118.5 47 Z"></path></symbol><symbol id="ring" viewBox="0 -680 2816 2816"><path d="M440 2400 q102 0 183.5 -45 q81.5 -45 129 -122 q47.5 -77 47.5 -173 q0 -96 -47.5 -176 q-47.5 -80 -129 -128 q-81.5 -48 -183.5 -48 q-102 0 -184.5 48 q-82.5 48 -131 128 q-48.5 80 -48.5 176 q0 96 48.5 173 q48.5 77 131 122 q82.5 45 184.5 45 ZM440 2248 q-84 0 -138 -58 q-54 -58 -54 -130 q0 -75 54 -135.5 q54 -60.5 138 -60.5 q84 0 138 60.5 q54 60.5 54 135.5 q0 72 -54 130 q-54 58 -138 58 Z"></path></symbol><symbol id="cedilla" viewBox="0 -680 2816 2816"><path d="M240 -404 q114 9 165 34 q51 25 51 94 q0 69 -61.5 98.5 q-61.5 29.5 -154.5 29.5 l8 156 q207 0 313.5 -81.5 q106.5 -81.5 106.5 -210.5 q0 -117 -65 -170.5 q-65 -53.5 -143 -65.5 l16 -80 l-196 0 l-40 196 Z"></path></symbol><symbol id="space" viewBox="0 -680 2816 2816"><path d=""></path></symbol><symbol id="nonbreakingspace" viewBox="0 -680 2816 2816"><path d=""></path></symbol><symbol id="uni-8194" viewBox="0 -680 2816 2816"><path d=""></path></symbol><symbol id="uni-8201" viewBox="0 -680 2816 2816"><path d=""></path></symbol><symbol id="uni-8203" viewBox="0 -680 2816 2816"><path d=""></path></symbol><symbol id=".null" viewBox="0 -680 2816 2816"><path d="M1328 1638 l-634 -632 l1642 0 l0 -220 l-1642 0 l634 -634 l-154 -152 l-896 896 l896 896 l154 -154 Z"></path></symbol><symbol id=".null" viewBox="0 -680 2816 2816"><path d="M1328 1638 l-634 -632 l2730 0 l0 -220 l-2730 0 l634 -634 l-154 -152 l-896 896 l896 896 l154 -154 Z"></path></symbol><symbol id=".null" viewBox="0 -680 2816 2816"><path d="M1328 1638 l-634 -632 l6506 0 l0 -220 l-6506 0 l634 -634 l-154 -152 l-896 896 l896 896 l154 -154 Z"></path></symbol><symbol id=".null" viewBox="0 -680 2816 2816"><path d="M1328 1640 l-744 -744 l744 -742 l-154 -154 l-896 896 l896 896 l154 -152 ZM3424 1244 l0 -220 l-2870 0 l220 220 l2650 0 ZM3424 768 l0 -220 l-2650 0 l-220 220 l2870 0 Z"></path></symbol><symbol id=".null" viewBox="0 -680 2816 2816"><path d="M2410 896 l-896 -896 l-154 154 l634 632 l-1642 0 l0 220 l1642 0 l-634 634 l154 152 l896 -896 Z"></path></symbol><symbol id=".null" viewBox="0 -680 2816 2816"><path d="M3498 896 l-896 -896 l-154 152 l634 634 l-2730 0 l0 220 l2730 0 l-634 632 l154 154 l896 -896 Z"></path></symbol><symbol id=".null" viewBox="0 -680 2816 2816"><path d="M7274 896 l-896 -896 l-154 152 l634 634 l-6506 0 l0 220 l6506 0 l-634 632 l154 154 l896 -896 Z"></path></symbol><symbol id=".null" viewBox="0 -680 2816 2816"><path d="M2410 896 l-896 -896 l-154 154 l744 742 l-744 744 l154 152 l896 -896 ZM1914 1244 l220 -220 l-1782 0 l0 220 l1562 0 ZM2134 768 l-220 -220 l-1562 0 l0 220 l1782 0 Z"></path></symbol><symbol id=".null" viewBox="0 -680 2816 2816"><path d="M3498 896 l-896 -896 l-154 154 l744 742 l-744 744 l154 152 l896 -896 ZM3002 1244 l220 -220 l-2870 0 l0 220 l2650 0 ZM3222 768 l-220 -220 l-2650 0 l0 220 l2870 0 Z"></path></symbol><symbol id=".null" viewBox="0 -680 2816 2816"><path d="M1328 1638 l-634 -632 l2388 0 l-634 632 l154 154 l896 -896 l-896 -896 l-154 152 l634 634 l-2388 0 l634 -634 l-154 -152 l-896 896 l896 896 l154 -154 Z"></path></symbol><symbol id=".null" viewBox="0 -680 2816 2816"><path d="M1328 1638 l-634 -632 l3540 0 l-634 632 l154 154 l896 -896 l-896 -896 l-154 152 l634 634 l-3540 0 l634 -634 l-154 -152 l-896 896 l896 896 l154 -154 Z"></path></symbol><symbol id=".null" viewBox="0 -680 2816 2816"><path d="M3498 896 l-896 -896 l-154 154 l744 742 l-744 744 l154 152 l896 -896 ZM1328 1640 l-744 -744 l744 -742 l-154 -154 l-896 896 l896 896 l154 -152 ZM2996 1244 l220 -220 l-2662 0 l220 220 l2222 0 ZM3216 768 l-220 -220 l-2222 0 l-220 220 l2662 0 Z"></path></symbol><symbol id=".null" viewBox="0 -680 2816 2816"><path d="M4650 896 l-896 -896 l-154 154 l744 742 l-744 744 l154 152 l896 -896 ZM1328 1640 l-744 -744 l744 -742 l-154 -154 l-896 896 l896 896 l154 -152 ZM4148 1244 l220 -220 l-3814 0 l220 220 l3374 0 ZM4368 768 l-220 -220 l-3374 0 l-220 220 l3814 0 Z"></path></symbol><symbol id="uni-8593" viewBox="0 -680 2816 2816"><path d="M1454 2060 l0 -1644 l634 634 l152 -154 l-896 -896 l-898 896 l156 154 l632 -634 l0 1644 l220 0 Z"></path></symbol><symbol id="uni-8595" viewBox="0 -680 2816 2816"><path d="M1234 -12 l0 1644 l-634 -634 l-152 154 l896 896 l898 -896 l-156 -154 l-632 634 l0 -1644 l-220 0 Z"></path></symbol><symbol id=".null" viewBox="0 -680 2816 2816"><path d="M1328 1766 l-634 -632 l1642 0 l0 -220 l-1642 0 l634 -634 l-154 -152 l-896 896 l896 896 l154 -154 Z"></path></symbol><symbol id=".null" viewBox="0 -680 2816 2816"><path d="M2410 1024 l-896 -896 l-154 154 l634 632 l-1642 0 l0 220 l1642 0 l-634 634 l154 152 l896 -896 Z"></path></symbol><symbol id=".null" viewBox="0 -680 2816 2816"><path d="M2448 282 l634 632 l-2730 0 l0 220 l2730 0 l-634 634 l154 152 l896 -896 l-896 -896 l-154 154 Z"></path></symbol><symbol id="uni-699" viewBox="0 -680 2816 2816"><path d="M444 2144 l0 -256 q0 -120 35 -224.5 q35 -104.5 101 -203.5 l-156 -104 q-80 68 -136.5 159.5 q-56.5 91.5 -86 190 q-29.5 98.5 -29.5 186.5 l0 252 l272 0 Z"></path></symbol><symbol id="uni-65279" viewBox="0 -680 2816 2816"><path d=""></path></symbol></defs></svg>